<?xml version="1.0" encoding="UTF-8"?>
<svg version="1.1" xmlns="http://www.w3.org/2000/svg" width="334" height="694">
<path d="M0 0 C110.22 0 220.44 0 334 0 C334 229.02 334 458.04 334 694 C223.78 694 113.56 694 0 694 C0 464.98 0 235.96 0 0 Z " fill="#002B35" transform="translate(0,0)"/>
<path d="M0 0 C110.22 0 220.44 0 334 0 C334 171.6 334 343.2 334 520 C333.67 520 333.34 520 333 520 C333 429.58 333 339.16 333 246 C223.11 246 113.22 246 0 246 C0 164.82 0 83.64 0 0 Z " fill="#002B36" transform="translate(0,0)"/>
<path d="M0 0 C1.08684237 -0.00782324 2.17368475 -0.01564648 3.29346174 -0.02370679 C5.09138862 -0.01366855 5.09138862 -0.01366855 6.92563725 -0.00342751 C8.19536304 -0.00810748 9.46508884 -0.01278745 10.77329117 -0.01760924 C14.30476049 -0.03017085 17.83598762 -0.0239256 21.36745799 -0.01465058 C25.17326026 -0.00788137 28.97901998 -0.01833076 32.78481388 -0.02659035 C40.24344367 -0.03995308 47.70198307 -0.03703856 55.16061645 -0.02835242 C61.22125496 -0.02158574 67.28186807 -0.02065475 73.34250927 -0.02392387 C74.20408525 -0.02438357 75.06566124 -0.02484327 75.95334559 -0.0253169 C77.70346507 -0.02627605 79.45358454 -0.02724869 81.20370401 -0.02823468 C97.6275761 -0.03679614 114.05139801 -0.02694286 130.47526187 -0.01083358 C144.57504288 0.00256791 158.67474979 0.00024438 172.77452946 -0.01358986 C189.13684388 -0.02963644 205.49911428 -0.03596958 221.86143547 -0.02675307 C223.60553363 -0.02579739 225.3496318 -0.02485428 227.09372997 -0.02392387 C228.3810157 -0.02322963 228.3810157 -0.02322963 229.69430719 -0.02252137 C235.74883921 -0.01992853 241.80334335 -0.02430884 247.85787106 -0.03136253 C255.23473852 -0.03976761 262.6115102 -0.03751847 269.98836666 -0.0215203 C273.75390716 -0.01362378 277.51928783 -0.01056932 281.28482723 -0.02046776 C285.36250266 -0.03102474 289.43977281 -0.01843856 293.51743412 -0.00342751 C294.71382132 -0.01011967 295.91020851 -0.01681184 297.14284986 -0.02370679 C298.77702504 -0.01197193 298.77702504 -0.01197193 300.44421387 0 C301.38581295 0.00048706 302.32741203 0.00097411 303.29754442 0.00147593 C306.25316431 0.44829443 307.63297445 1.33245608 309.7850275 3.37752342 C310.29296207 5.57159996 310.29296207 5.57159996 310.30260563 8.15266991 C310.31521427 9.12054939 310.32782291 10.08842888 310.34081364 11.08563805 C310.32866825 12.65131271 310.32866825 12.65131271 310.3162775 14.24861717 C310.32010441 15.32249184 310.32393131 16.3963665 310.32787418 17.50278282 C310.3305974 19.77492268 310.32320773 22.04709367 310.30651188 24.31917381 C310.28513016 27.79831973 310.30629024 31.27539552 310.3319025 34.75447655 C310.32925889 36.96086132 310.32413323 39.1672448 310.3162775 41.37361717 C310.32437443 42.41537605 310.33247135 43.45713493 310.34081364 44.53046227 C310.32190067 45.98700974 310.32190067 45.98700974 310.30260563 47.47298241 C310.29942326 48.32553108 310.29624088 49.17807976 310.29296207 50.05646324 C309.59766409 53.23370014 308.28153544 54.331787 305.7850275 56.37752342 C303.29754442 56.87892008 303.29754442 56.87892008 300.44421387 56.88088799 C299.35476375 56.89131897 298.26531362 56.90174996 297.14284986 56.91249704 C295.34826907 56.89911271 295.34826907 56.89911271 293.51743412 56.88545799 C292.24614833 56.89169796 290.97486255 56.89793792 289.66505295 56.90436697 C286.13384955 56.92109468 282.60307749 56.91279869 279.07187235 56.9004221 C275.26473039 56.89138794 271.45766365 56.90533311 267.65053654 56.91634178 C260.19168841 56.93414864 252.73300109 56.93027757 245.27414661 56.91869122 C239.21399428 56.90966634 233.15388709 56.90842878 227.09372997 56.91278648 C226.23200076 56.91339942 225.37027154 56.91401235 224.48242931 56.91464385 C222.73198563 56.91592272 220.98154196 56.91721957 219.2310983 56.91853422 C202.80914451 56.92994619 186.38727996 56.9168163 169.9653408 56.89533275 C155.865234 56.87745803 141.76525889 56.88056776 127.66515446 56.8990078 C111.3013678 56.92039817 94.93765939 56.92885085 78.5738607 56.91655874 C76.83007691 56.91528451 75.08629309 56.91402703 73.34250927 56.91278648 C72.05545496 56.91186083 72.05545496 56.91186083 70.74239955 56.91091648 C64.68687686 56.9074583 58.63140367 56.9133019 52.57588863 56.9227047 C45.20008704 56.93390559 37.82445578 56.93092493 30.44867378 56.90958172 C26.68320846 56.89904587 22.91802747 56.89499223 19.15256405 56.90817833 C15.07667259 56.92223602 11.00150342 56.9054885 6.92563725 56.88545799 C5.72701933 56.89438088 4.52840141 56.90330377 3.29346174 56.91249704 C2.20661937 56.90206605 1.11977699 56.89163507 0 56.88088799 C-0.94143673 56.88023858 -1.88287346 56.87958917 -2.85283858 56.87892008 C-5.2149725 56.37752342 -5.2149725 56.37752342 -7.01709884 54.4911294 C-8.45125374 51.96061348 -8.59504206 50.37128415 -8.60315609 47.47298241 C-8.61734081 46.01643494 -8.61734081 46.01643494 -8.6318121 44.53046227 C-8.6257394 43.48870338 -8.61966671 42.4469445 -8.61341 41.37361717 C-8.61628017 40.29878578 -8.61915035 39.22395439 -8.62210751 38.11655235 C-8.6241477 35.84619685 -8.618621 33.57582375 -8.60608578 31.30550194 C-8.59001649 27.8245537 -8.60594475 24.34476388 -8.62512875 20.86385155 C-8.62314662 18.65877085 -8.61930357 16.45369088 -8.61341 14.24861717 C-8.61948269 13.20483406 -8.62555538 12.16105095 -8.6318121 11.08563805 C-8.62235561 10.11775856 -8.61289913 9.14987907 -8.60315609 8.15266991 C-8.60076931 7.30091682 -8.59838253 6.44916374 -8.59592342 5.57159996 C-7.73121168 0.59131615 -4.57331576 0.00236603 0 0 Z " fill="#B58901" transform="translate(15.214972496032715,477.6224765777588)"/>
<path d="M0 0 C1.08684237 -0.00782324 2.17368475 -0.01564648 3.29346174 -0.02370679 C5.09138862 -0.01366855 5.09138862 -0.01366855 6.92563725 -0.00342751 C8.19536304 -0.00810748 9.46508884 -0.01278745 10.77329117 -0.01760924 C14.30476049 -0.03017085 17.83598762 -0.0239256 21.36745799 -0.01465058 C25.17326026 -0.00788137 28.97901998 -0.01833076 32.78481388 -0.02659035 C40.24344367 -0.03995308 47.70198307 -0.03703856 55.16061645 -0.02835242 C61.22125496 -0.02158574 67.28186807 -0.02065475 73.34250927 -0.02392387 C74.20408525 -0.02438357 75.06566124 -0.02484327 75.95334559 -0.0253169 C77.70346507 -0.02627605 79.45358454 -0.02724869 81.20370401 -0.02823468 C97.6275761 -0.03679614 114.05139801 -0.02694286 130.47526187 -0.01083358 C144.57504288 0.00256791 158.67474979 0.00024438 172.77452946 -0.01358986 C189.13684388 -0.02963644 205.49911428 -0.03596958 221.86143547 -0.02675307 C223.60553363 -0.02579739 225.3496318 -0.02485428 227.09372997 -0.02392387 C228.3810157 -0.02322963 228.3810157 -0.02322963 229.69430719 -0.02252137 C235.74883921 -0.01992853 241.80334335 -0.02430884 247.85787106 -0.03136253 C255.23473852 -0.03976761 262.6115102 -0.03751847 269.98836666 -0.0215203 C273.75390716 -0.01362378 277.51928783 -0.01056932 281.28482723 -0.02046776 C285.36250266 -0.03102474 289.43977281 -0.01843856 293.51743412 -0.00342751 C294.71382132 -0.01011967 295.91020851 -0.01681184 297.14284986 -0.02370679 C298.77702504 -0.01197193 298.77702504 -0.01197193 300.44421387 0 C301.38581295 0.00048706 302.32741203 0.00097411 303.29754442 0.00147593 C306.25316431 0.44829443 307.63297445 1.33245608 309.7850275 3.37752342 C310.29296207 5.57159996 310.29296207 5.57159996 310.30260563 8.15266991 C310.31521427 9.12054939 310.32782291 10.08842888 310.34081364 11.08563805 C310.32866825 12.65131271 310.32866825 12.65131271 310.3162775 14.24861717 C310.32010441 15.32249184 310.32393131 16.3963665 310.32787418 17.50278282 C310.3305974 19.77492268 310.32320773 22.04709367 310.30651188 24.31917381 C310.28513016 27.79831973 310.30629024 31.27539552 310.3319025 34.75447655 C310.32925889 36.96086132 310.32413323 39.1672448 310.3162775 41.37361717 C310.32437443 42.41537605 310.33247135 43.45713493 310.34081364 44.53046227 C310.32190067 45.98700974 310.32190067 45.98700974 310.30260563 47.47298241 C310.29942326 48.32553108 310.29624088 49.17807976 310.29296207 50.05646324 C309.59766409 53.23370014 308.28153544 54.331787 305.7850275 56.37752342 C303.29754442 56.87892008 303.29754442 56.87892008 300.44421387 56.88088799 C299.35476375 56.89131897 298.26531362 56.90174996 297.14284986 56.91249704 C295.34826907 56.89911271 295.34826907 56.89911271 293.51743412 56.88545799 C292.24614833 56.89169796 290.97486255 56.89793792 289.66505295 56.90436697 C286.13384955 56.92109468 282.60307749 56.91279869 279.07187235 56.9004221 C275.26473039 56.89138794 271.45766365 56.90533311 267.65053654 56.91634178 C260.19168841 56.93414864 252.73300109 56.93027757 245.27414661 56.91869122 C239.21399428 56.90966634 233.15388709 56.90842878 227.09372997 56.91278648 C226.23200076 56.91339942 225.37027154 56.91401235 224.48242931 56.91464385 C222.73198563 56.91592272 220.98154196 56.91721957 219.2310983 56.91853422 C202.80914451 56.92994619 186.38727996 56.9168163 169.9653408 56.89533275 C155.865234 56.87745803 141.76525889 56.88056776 127.66515446 56.8990078 C111.3013678 56.92039817 94.93765939 56.92885085 78.5738607 56.91655874 C76.83007691 56.91528451 75.08629309 56.91402703 73.34250927 56.91278648 C72.05545496 56.91186083 72.05545496 56.91186083 70.74239955 56.91091648 C64.68687686 56.9074583 58.63140367 56.9133019 52.57588863 56.9227047 C45.20008704 56.93390559 37.82445578 56.93092493 30.44867378 56.90958172 C26.68320846 56.89904587 22.91802747 56.89499223 19.15256405 56.90817833 C15.07667259 56.92223602 11.00150342 56.9054885 6.92563725 56.88545799 C5.72701933 56.89438088 4.52840141 56.90330377 3.29346174 56.91249704 C2.20661937 56.90206605 1.11977699 56.89163507 0 56.88088799 C-0.94143673 56.88023858 -1.88287346 56.87958917 -2.85283858 56.87892008 C-5.2149725 56.37752342 -5.2149725 56.37752342 -7.01709884 54.4911294 C-8.45125374 51.96061348 -8.59504206 50.37128415 -8.60315609 47.47298241 C-8.61734081 46.01643494 -8.61734081 46.01643494 -8.6318121 44.53046227 C-8.6257394 43.48870338 -8.61966671 42.4469445 -8.61341 41.37361717 C-8.61628017 40.29878578 -8.61915035 39.22395439 -8.62210751 38.11655235 C-8.6241477 35.84619685 -8.618621 33.57582375 -8.60608578 31.30550194 C-8.59001649 27.8245537 -8.60594475 24.34476388 -8.62512875 20.86385155 C-8.62314662 18.65877085 -8.61930357 16.45369088 -8.61341 14.24861717 C-8.61948269 13.20483406 -8.62555538 12.16105095 -8.6318121 11.08563805 C-8.62235561 10.11775856 -8.61289913 9.14987907 -8.60315609 8.15266991 C-8.60076931 7.30091682 -8.59838253 6.44916374 -8.59592342 5.57159996 C-7.73121168 0.59131615 -4.57331576 0.00236603 0 0 Z " fill="#B58900" transform="translate(15.214972496032715,405.6224765777588)"/>
<path d="M0 0 C1.08684237 -0.00782324 2.17368475 -0.01564648 3.29346174 -0.02370679 C5.09138862 -0.01366855 5.09138862 -0.01366855 6.92563725 -0.00342751 C8.19536304 -0.00810748 9.46508884 -0.01278745 10.77329117 -0.01760924 C14.30476049 -0.03017085 17.83598762 -0.0239256 21.36745799 -0.01465058 C25.17326026 -0.00788137 28.97901998 -0.01833076 32.78481388 -0.02659035 C40.24344367 -0.03995308 47.70198307 -0.03703856 55.16061645 -0.02835242 C61.22125496 -0.02158574 67.28186807 -0.02065475 73.34250927 -0.02392387 C74.20408525 -0.02438357 75.06566124 -0.02484327 75.95334559 -0.0253169 C77.70346507 -0.02627605 79.45358454 -0.02724869 81.20370401 -0.02823468 C97.6275761 -0.03679614 114.05139801 -0.02694286 130.47526187 -0.01083358 C144.57504288 0.00256791 158.67474979 0.00024438 172.77452946 -0.01358986 C189.13684388 -0.02963644 205.49911428 -0.03596958 221.86143547 -0.02675307 C223.60553363 -0.02579739 225.3496318 -0.02485428 227.09372997 -0.02392387 C228.3810157 -0.02322963 228.3810157 -0.02322963 229.69430719 -0.02252137 C235.74883921 -0.01992853 241.80334335 -0.02430884 247.85787106 -0.03136253 C255.23473852 -0.03976761 262.6115102 -0.03751847 269.98836666 -0.0215203 C273.75390716 -0.01362378 277.51928783 -0.01056932 281.28482723 -0.02046776 C285.36250266 -0.03102474 289.43977281 -0.01843856 293.51743412 -0.00342751 C294.71382132 -0.01011967 295.91020851 -0.01681184 297.14284986 -0.02370679 C298.77702504 -0.01197193 298.77702504 -0.01197193 300.44421387 0 C301.38581295 0.00048706 302.32741203 0.00097411 303.29754442 0.00147593 C306.25316431 0.44829443 307.63297445 1.33245608 309.7850275 3.37752342 C310.29296207 5.57159996 310.29296207 5.57159996 310.30260563 8.15266991 C310.31521427 9.12054939 310.32782291 10.08842888 310.34081364 11.08563805 C310.32866825 12.65131271 310.32866825 12.65131271 310.3162775 14.24861717 C310.32010441 15.32249184 310.32393131 16.3963665 310.32787418 17.50278282 C310.3305974 19.77492268 310.32320773 22.04709367 310.30651188 24.31917381 C310.28513016 27.79831973 310.30629024 31.27539552 310.3319025 34.75447655 C310.32925889 36.96086132 310.32413323 39.1672448 310.3162775 41.37361717 C310.32437443 42.41537605 310.33247135 43.45713493 310.34081364 44.53046227 C310.32190067 45.98700974 310.32190067 45.98700974 310.30260563 47.47298241 C310.29942326 48.32553108 310.29624088 49.17807976 310.29296207 50.05646324 C309.59766409 53.23370014 308.28153544 54.331787 305.7850275 56.37752342 C303.29754442 56.87892008 303.29754442 56.87892008 300.44421387 56.88088799 C299.35476375 56.89131897 298.26531362 56.90174996 297.14284986 56.91249704 C295.34826907 56.89911271 295.34826907 56.89911271 293.51743412 56.88545799 C292.24614833 56.89169796 290.97486255 56.89793792 289.66505295 56.90436697 C286.13384955 56.92109468 282.60307749 56.91279869 279.07187235 56.9004221 C275.26473039 56.89138794 271.45766365 56.90533311 267.65053654 56.91634178 C260.19168841 56.93414864 252.73300109 56.93027757 245.27414661 56.91869122 C239.21399428 56.90966634 233.15388709 56.90842878 227.09372997 56.91278648 C226.23200076 56.91339942 225.37027154 56.91401235 224.48242931 56.91464385 C222.73198563 56.91592272 220.98154196 56.91721957 219.2310983 56.91853422 C202.80914451 56.92994619 186.38727996 56.9168163 169.9653408 56.89533275 C155.865234 56.87745803 141.76525889 56.88056776 127.66515446 56.8990078 C111.3013678 56.92039817 94.93765939 56.92885085 78.5738607 56.91655874 C76.83007691 56.91528451 75.08629309 56.91402703 73.34250927 56.91278648 C72.05545496 56.91186083 72.05545496 56.91186083 70.74239955 56.91091648 C64.68687686 56.9074583 58.63140367 56.9133019 52.57588863 56.9227047 C45.20008704 56.93390559 37.82445578 56.93092493 30.44867378 56.90958172 C26.68320846 56.89904587 22.91802747 56.89499223 19.15256405 56.90817833 C15.07667259 56.92223602 11.00150342 56.9054885 6.92563725 56.88545799 C5.72701933 56.89438088 4.52840141 56.90330377 3.29346174 56.91249704 C2.20661937 56.90206605 1.11977699 56.89163507 0 56.88088799 C-0.94143673 56.88023858 -1.88287346 56.87958917 -2.85283858 56.87892008 C-5.2149725 56.37752342 -5.2149725 56.37752342 -7.01709884 54.4911294 C-8.45125374 51.96061348 -8.59504206 50.37128415 -8.60315609 47.47298241 C-8.61734081 46.01643494 -8.61734081 46.01643494 -8.6318121 44.53046227 C-8.6257394 43.48870338 -8.61966671 42.4469445 -8.61341 41.37361717 C-8.61628017 40.29878578 -8.61915035 39.22395439 -8.62210751 38.11655235 C-8.6241477 35.84619685 -8.618621 33.57582375 -8.60608578 31.30550194 C-8.59001649 27.8245537 -8.60594475 24.34476388 -8.62512875 20.86385155 C-8.62314662 18.65877085 -8.61930357 16.45369088 -8.61341 14.24861717 C-8.61948269 13.20483406 -8.62555538 12.16105095 -8.6318121 11.08563805 C-8.62235561 10.11775856 -8.61289913 9.14987907 -8.60315609 8.15266991 C-8.60076931 7.30091682 -8.59838253 6.44916374 -8.59592342 5.57159996 C-7.73121168 0.59131615 -4.57331576 0.00236603 0 0 Z " fill="#B58901" transform="translate(15.214972496032715,333.6224765777588)"/>
<path d="M0 0 C1.08684237 -0.00782324 2.17368475 -0.01564648 3.29346174 -0.02370679 C5.09138862 -0.01366855 5.09138862 -0.01366855 6.92563725 -0.00342751 C8.19536304 -0.00810748 9.46508884 -0.01278745 10.77329117 -0.01760924 C14.30476049 -0.03017085 17.83598762 -0.0239256 21.36745799 -0.01465058 C25.17326026 -0.00788137 28.97901998 -0.01833076 32.78481388 -0.02659035 C40.24344367 -0.03995308 47.70198307 -0.03703856 55.16061645 -0.02835242 C61.22125496 -0.02158574 67.28186807 -0.02065475 73.34250927 -0.02392387 C74.20408525 -0.02438357 75.06566124 -0.02484327 75.95334559 -0.0253169 C77.70346507 -0.02627605 79.45358454 -0.02724869 81.20370401 -0.02823468 C97.6275761 -0.03679614 114.05139801 -0.02694286 130.47526187 -0.01083358 C144.57504288 0.00256791 158.67474979 0.00024438 172.77452946 -0.01358986 C189.13684388 -0.02963644 205.49911428 -0.03596958 221.86143547 -0.02675307 C223.60553363 -0.02579739 225.3496318 -0.02485428 227.09372997 -0.02392387 C228.3810157 -0.02322963 228.3810157 -0.02322963 229.69430719 -0.02252137 C235.74883921 -0.01992853 241.80334335 -0.02430884 247.85787106 -0.03136253 C255.23473852 -0.03976761 262.6115102 -0.03751847 269.98836666 -0.0215203 C273.75390716 -0.01362378 277.51928783 -0.01056932 281.28482723 -0.02046776 C285.36250266 -0.03102474 289.43977281 -0.01843856 293.51743412 -0.00342751 C294.71382132 -0.01011967 295.91020851 -0.01681184 297.14284986 -0.02370679 C298.77702504 -0.01197193 298.77702504 -0.01197193 300.44421387 0 C301.38581295 0.00048706 302.32741203 0.00097411 303.29754442 0.00147593 C306.25316431 0.44829443 307.63297445 1.33245608 309.7850275 3.37752342 C310.29296207 5.57159996 310.29296207 5.57159996 310.30260563 8.15266991 C310.31521427 9.12054939 310.32782291 10.08842888 310.34081364 11.08563805 C310.32866825 12.65131271 310.32866825 12.65131271 310.3162775 14.24861717 C310.32010441 15.32249184 310.32393131 16.3963665 310.32787418 17.50278282 C310.3305974 19.77492268 310.32320773 22.04709367 310.30651188 24.31917381 C310.28513016 27.79831973 310.30629024 31.27539552 310.3319025 34.75447655 C310.32925889 36.96086132 310.32413323 39.1672448 310.3162775 41.37361717 C310.32437443 42.41537605 310.33247135 43.45713493 310.34081364 44.53046227 C310.32190067 45.98700974 310.32190067 45.98700974 310.30260563 47.47298241 C310.29942326 48.32553108 310.29624088 49.17807976 310.29296207 50.05646324 C309.59766409 53.23370014 308.28153544 54.331787 305.7850275 56.37752342 C303.29754442 56.87892008 303.29754442 56.87892008 300.44421387 56.88088799 C299.35476375 56.89131897 298.26531362 56.90174996 297.14284986 56.91249704 C295.34826907 56.89911271 295.34826907 56.89911271 293.51743412 56.88545799 C292.24614833 56.89169796 290.97486255 56.89793792 289.66505295 56.90436697 C286.13384955 56.92109468 282.60307749 56.91279869 279.07187235 56.9004221 C275.26473039 56.89138794 271.45766365 56.90533311 267.65053654 56.91634178 C260.19168841 56.93414864 252.73300109 56.93027757 245.27414661 56.91869122 C239.21399428 56.90966634 233.15388709 56.90842878 227.09372997 56.91278648 C226.23200076 56.91339942 225.37027154 56.91401235 224.48242931 56.91464385 C222.73198563 56.91592272 220.98154196 56.91721957 219.2310983 56.91853422 C202.80914451 56.92994619 186.38727996 56.9168163 169.9653408 56.89533275 C155.865234 56.87745803 141.76525889 56.88056776 127.66515446 56.8990078 C111.3013678 56.92039817 94.93765939 56.92885085 78.5738607 56.91655874 C76.83007691 56.91528451 75.08629309 56.91402703 73.34250927 56.91278648 C72.05545496 56.91186083 72.05545496 56.91186083 70.74239955 56.91091648 C64.68687686 56.9074583 58.63140367 56.9133019 52.57588863 56.9227047 C45.20008704 56.93390559 37.82445578 56.93092493 30.44867378 56.90958172 C26.68320846 56.89904587 22.91802747 56.89499223 19.15256405 56.90817833 C15.07667259 56.92223602 11.00150342 56.9054885 6.92563725 56.88545799 C5.72701933 56.89438088 4.52840141 56.90330377 3.29346174 56.91249704 C2.20661937 56.90206605 1.11977699 56.89163507 0 56.88088799 C-0.94143673 56.88023858 -1.88287346 56.87958917 -2.85283858 56.87892008 C-5.2149725 56.37752342 -5.2149725 56.37752342 -7.01709884 54.4911294 C-8.45125374 51.96061348 -8.59504206 50.37128415 -8.60315609 47.47298241 C-8.61734081 46.01643494 -8.61734081 46.01643494 -8.6318121 44.53046227 C-8.6257394 43.48870338 -8.61966671 42.4469445 -8.61341 41.37361717 C-8.61628017 40.29878578 -8.61915035 39.22395439 -8.62210751 38.11655235 C-8.6241477 35.84619685 -8.618621 33.57582375 -8.60608578 31.30550194 C-8.59001649 27.8245537 -8.60594475 24.34476388 -8.62512875 20.86385155 C-8.62314662 18.65877085 -8.61930357 16.45369088 -8.61341 14.24861717 C-8.61948269 13.20483406 -8.62555538 12.16105095 -8.6318121 11.08563805 C-8.62235561 10.11775856 -8.61289913 9.14987907 -8.60315609 8.15266991 C-8.60076931 7.30091682 -8.59838253 6.44916374 -8.59592342 5.57159996 C-7.73121168 0.59131615 -4.57331576 0.00236603 0 0 Z " fill="#B58901" transform="translate(15.214972496032715,261.6224765777588)"/>
<path d="M0 0 C1.08397568 -0.00782324 2.16795135 -0.01564648 3.28477478 -0.02370679 C5.07788841 -0.01366855 5.07788841 -0.01366855 6.90722656 -0.00342751 C8.17357437 -0.00810748 9.43992218 -0.01278745 10.74464417 -0.01760924 C14.26664274 -0.03017064 17.78839848 -0.02392571 21.3103981 -0.01465058 C25.10595625 -0.00788135 28.90147173 -0.01833072 32.69702148 -0.02659035 C40.1352629 -0.03995268 47.57341366 -0.03703885 55.01165867 -0.02835242 C61.05514332 -0.02158609 67.0986025 -0.0206546 73.14208984 -0.02392387 C74.00117919 -0.02438357 74.86026854 -0.02484327 75.74539089 -0.0253169 C77.4904391 -0.02627605 79.23548731 -0.02724869 80.98053551 -0.02823468 C97.35621116 -0.03679589 113.73183649 -0.02694298 130.10750389 -0.01083358 C144.16837416 0.00257027 158.22917014 0.00024238 172.29003906 -0.01358986 C188.60583216 -0.02963277 204.9215811 -0.03597185 221.23738098 -0.02675307 C222.97612507 -0.02579739 224.71486917 -0.02485428 226.45361328 -0.02392387 C227.30918036 -0.02346105 228.16474745 -0.02299822 229.04624081 -0.02252137 C235.08471165 -0.01992761 241.12315457 -0.02431078 247.16162109 -0.03136253 C254.51729054 -0.03976344 261.87286391 -0.0375272 269.2285223 -0.0215203 C272.98381274 -0.01361849 276.73894281 -0.01057826 280.49423218 -0.02046776 C284.55912085 -0.03101093 288.62360214 -0.01844984 292.68847656 -0.00342751 C293.88388565 -0.01011967 295.07929474 -0.01681184 296.31092834 -0.02370679 C297.93689186 -0.01197193 297.93689186 -0.01197193 299.59570312 0 C301.00411469 0.00073059 301.00411469 0.00073059 302.440979 0.00147593 C304.79785156 0.37752342 304.79785156 0.37752342 306.59872437 1.71068895 C308.52345707 4.38614393 308.18730558 6.8832023 308.19628906 10.12752342 C308.19915924 10.78204491 308.20202942 11.43656639 308.20498657 12.11092186 C308.20702524 13.49276661 308.20150902 14.87464035 308.18896484 16.25642967 C308.17290592 18.37036793 308.18881757 20.48239456 308.20800781 22.59627342 C308.20602534 23.94002764 308.20218158 25.28378066 308.19628906 26.62752342 C308.19290527 27.84955467 308.18952148 29.07158592 308.18603516 30.33064842 C307.79785156 33.37752342 307.79785156 33.37752342 306.59872437 35.0443579 C304.16683984 36.84465418 302.60854274 36.75348399 299.59570312 36.75504684 C297.96973961 36.76678171 297.96973961 36.76678171 296.31092834 36.77875364 C294.51781471 36.76871539 294.51781471 36.76871539 292.68847656 36.75847435 C291.42212875 36.76315432 290.15578094 36.76783429 288.85105896 36.77265608 C285.32906038 36.78521748 281.80730465 36.77897256 278.28530502 36.76969743 C274.48974688 36.7629282 270.69423139 36.77337757 266.89868164 36.78163719 C259.46044023 36.79499952 252.02228947 36.79208569 244.58404446 36.78339927 C238.54055981 36.77663294 232.49710063 36.77570144 226.45361328 36.77897072 C225.59452394 36.77943042 224.73543459 36.77989012 223.85031223 36.78036375 C222.10526402 36.78132289 220.36021582 36.78229553 218.61516762 36.78328152 C202.23949196 36.79184274 185.86386664 36.78198982 169.48819923 36.76588042 C155.42732897 36.75247657 141.36653299 36.75480446 127.30566406 36.7686367 C110.98987097 36.78467962 94.67412202 36.79101869 78.35832214 36.78179991 C76.61957805 36.78084423 74.88083395 36.77990112 73.14208984 36.77897072 C72.28652276 36.77850789 71.43095568 36.77804507 70.54946232 36.77756821 C64.51099147 36.77497445 58.47254855 36.77935762 52.43408203 36.78640938 C45.07841258 36.79481028 37.72283922 36.79257404 30.36718082 36.77656715 C26.61189038 36.76866534 22.85676032 36.76562511 19.10147095 36.7755146 C15.03658227 36.78605778 10.97210098 36.77349668 6.90722656 36.75847435 C5.71181747 36.76516652 4.51640839 36.77185868 3.28477478 36.77875364 C2.2007991 36.7709304 1.11682343 36.76310715 0 36.75504684 C-1.40841156 36.75431626 -1.40841156 36.75431626 -2.84527588 36.75357091 C-5.20214844 36.37752342 -5.20214844 36.37752342 -7.00302124 35.0443579 C-8.92775395 32.36890292 -8.59160245 29.87184454 -8.60058594 26.62752342 C-8.60345612 25.97300194 -8.60632629 25.31848045 -8.60928345 24.64412498 C-8.61132211 23.26228023 -8.6058059 21.88040649 -8.59326172 20.49861717 C-8.5772028 18.38467892 -8.59311445 16.27265229 -8.61230469 14.15877342 C-8.61032222 12.81501921 -8.60647846 11.47126618 -8.60058594 10.12752342 C-8.59720215 8.90549217 -8.59381836 7.68346092 -8.59033203 6.42439842 C-8.20214844 3.37752342 -8.20214844 3.37752342 -7.00302124 1.71068895 C-4.57113672 -0.08960733 -3.01283961 0.00156285 0 0 Z " fill="#AAB2BA" transform="translate(16.2021484375,137.6224765777588)"/>
<path d="M0 0 C1.08397568 -0.00782324 2.16795135 -0.01564648 3.28477478 -0.02370679 C5.07788841 -0.01366855 5.07788841 -0.01366855 6.90722656 -0.00342751 C8.17357437 -0.00810748 9.43992218 -0.01278745 10.74464417 -0.01760924 C14.26664274 -0.03017064 17.78839848 -0.02392571 21.3103981 -0.01465058 C25.10595625 -0.00788135 28.90147173 -0.01833072 32.69702148 -0.02659035 C40.1352629 -0.03995268 47.57341366 -0.03703885 55.01165867 -0.02835242 C61.05514332 -0.02158609 67.0986025 -0.0206546 73.14208984 -0.02392387 C74.00117919 -0.02438357 74.86026854 -0.02484327 75.74539089 -0.0253169 C77.4904391 -0.02627605 79.23548731 -0.02724869 80.98053551 -0.02823468 C97.35621116 -0.03679589 113.73183649 -0.02694298 130.10750389 -0.01083358 C144.16837416 0.00257027 158.22917014 0.00024238 172.29003906 -0.01358986 C188.60583216 -0.02963277 204.9215811 -0.03597185 221.23738098 -0.02675307 C222.97612507 -0.02579739 224.71486917 -0.02485428 226.45361328 -0.02392387 C227.30918036 -0.02346105 228.16474745 -0.02299822 229.04624081 -0.02252137 C235.08471165 -0.01992761 241.12315457 -0.02431078 247.16162109 -0.03136253 C254.51729054 -0.03976344 261.87286391 -0.0375272 269.2285223 -0.0215203 C272.98381274 -0.01361849 276.73894281 -0.01057826 280.49423218 -0.02046776 C284.55912085 -0.03101093 288.62360214 -0.01844984 292.68847656 -0.00342751 C293.88388565 -0.01011967 295.07929474 -0.01681184 296.31092834 -0.02370679 C297.93689186 -0.01197193 297.93689186 -0.01197193 299.59570312 0 C301.00411469 0.00073059 301.00411469 0.00073059 302.440979 0.00147593 C304.79785156 0.37752342 304.79785156 0.37752342 306.59872437 1.71068895 C308.52345707 4.38614393 308.18730558 6.8832023 308.19628906 10.12752342 C308.19915924 10.78204491 308.20202942 11.43656639 308.20498657 12.11092186 C308.20702524 13.49276661 308.20150902 14.87464035 308.18896484 16.25642967 C308.17290592 18.37036793 308.18881757 20.48239456 308.20800781 22.59627342 C308.20602534 23.94002764 308.20218158 25.28378066 308.19628906 26.62752342 C308.19290527 27.84955467 308.18952148 29.07158592 308.18603516 30.33064842 C307.79785156 33.37752342 307.79785156 33.37752342 306.59872437 35.0443579 C304.16683984 36.84465418 302.60854274 36.75348399 299.59570312 36.75504684 C297.96973961 36.76678171 297.96973961 36.76678171 296.31092834 36.77875364 C294.51781471 36.76871539 294.51781471 36.76871539 292.68847656 36.75847435 C291.42212875 36.76315432 290.15578094 36.76783429 288.85105896 36.77265608 C285.32906038 36.78521748 281.80730465 36.77897256 278.28530502 36.76969743 C274.48974688 36.7629282 270.69423139 36.77337757 266.89868164 36.78163719 C259.46044023 36.79499952 252.02228947 36.79208569 244.58404446 36.78339927 C238.54055981 36.77663294 232.49710063 36.77570144 226.45361328 36.77897072 C225.59452394 36.77943042 224.73543459 36.77989012 223.85031223 36.78036375 C222.10526402 36.78132289 220.36021582 36.78229553 218.61516762 36.78328152 C202.23949196 36.79184274 185.86386664 36.78198982 169.48819923 36.76588042 C155.42732897 36.75247657 141.36653299 36.75480446 127.30566406 36.7686367 C110.98987097 36.78467962 94.67412202 36.79101869 78.35832214 36.78179991 C76.61957805 36.78084423 74.88083395 36.77990112 73.14208984 36.77897072 C72.28652276 36.77850789 71.43095568 36.77804507 70.54946232 36.77756821 C64.51099147 36.77497445 58.47254855 36.77935762 52.43408203 36.78640938 C45.07841258 36.79481028 37.72283922 36.79257404 30.36718082 36.77656715 C26.61189038 36.76866534 22.85676032 36.76562511 19.10147095 36.7755146 C15.03658227 36.78605778 10.97210098 36.77349668 6.90722656 36.75847435 C5.71181747 36.76516652 4.51640839 36.77185868 3.28477478 36.77875364 C2.2007991 36.7709304 1.11682343 36.76310715 0 36.75504684 C-1.40841156 36.75431626 -1.40841156 36.75431626 -2.84527588 36.75357091 C-5.20214844 36.37752342 -5.20214844 36.37752342 -7.00302124 35.0443579 C-8.92775395 32.36890292 -8.59160245 29.87184454 -8.60058594 26.62752342 C-8.60345612 25.97300194 -8.60632629 25.31848045 -8.60928345 24.64412498 C-8.61132211 23.26228023 -8.6058059 21.88040649 -8.59326172 20.49861717 C-8.5772028 18.38467892 -8.59311445 16.27265229 -8.61230469 14.15877342 C-8.61032222 12.81501921 -8.60647846 11.47126618 -8.60058594 10.12752342 C-8.59720215 8.90549217 -8.59381836 7.68346092 -8.59033203 6.42439842 C-8.20214844 3.37752342 -8.20214844 3.37752342 -7.00302124 1.71068895 C-4.57113672 -0.08960733 -3.01283961 0.00156285 0 0 Z " fill="#ACB4BC" transform="translate(16.2021484375,75.62247657775879)"/>
<path d="M0 0 C110.22 0 220.44 0 334 0 C333.67 10.23 333.34 20.46 333 31 C223.11 31 113.22 31 0 31 C0 20.77 0 10.54 0 0 Z " fill="#222222" transform="translate(0,0)"/>
<path d="M0 0 C0.33 0 0.66 0 1 0 C1 169.62 1 339.24 1 514 C0.67 514 0.34 514 0 514 C0 423.58 0 333.16 0 240 C-109.89 240 -219.78 240 -333 240 C-333 239.67 -333 239.34 -333 239 C-223.11 239 -113.22 239 0 239 C0 174.98 0 110.96 0 45 C-109.89 45 -219.78 45 -333 45 C-333 38.4 -333 31.8 -333 25 C-223.11 25 -113.22 25 0 25 C0 16.75 0 8.5 0 0 Z " fill="#2E3033" transform="translate(333,6)"/>
<path d="M0 0 C0.9239003 -0.00845947 1.8478006 -0.01691895 2.79969788 -0.02563477 C3.81120911 -0.01956207 4.82272034 -0.01348938 5.86488342 -0.00723267 C7.46524193 -0.0151181 7.46524193 -0.0151181 9.09793091 -0.02316284 C12.63375885 -0.03639423 16.16913858 -0.02761276 19.70497131 -0.01748657 C22.15732917 -0.01950655 24.60968644 -0.02241734 27.06204224 -0.02618408 C32.20601613 -0.03061183 37.3498339 -0.02416229 42.49378967 -0.01016235 C49.09278017 0.00692057 55.69140441 -0.00290347 62.29038143 -0.02087975 C67.3560869 -0.03171298 72.42170534 -0.02827315 77.48741341 -0.02049637 C79.92072658 -0.01849263 82.35404761 -0.02095969 84.78735161 -0.02793503 C88.18710673 -0.0355407 91.58626647 -0.02395657 94.98597717 -0.00723267 C95.99546417 -0.01330536 97.00495117 -0.01937805 98.04502869 -0.02563477 C99.43510887 -0.01294556 99.43510887 -0.01294556 100.85327148 0 C101.65686568 0.00113108 102.46045988 0.00226215 103.28840542 0.00342751 C106.07894959 0.48191467 107.45776538 1.43160657 109.49012756 3.38095093 C110.00770569 6.50375366 110.00770569 6.50375366 110.02137756 10.31454468 C110.02711792 11.32606346 110.02711792 11.32606346 110.03297424 12.35801697 C110.03569322 13.78275039 110.02833266 15.20753374 110.01161194 16.63217163 C109.99022993 18.80803405 110.01139092 20.98058289 110.03700256 23.15634155 C110.03435862 24.54241652 110.02923227 25.92848944 110.02137756 27.31454468 C110.01686584 28.57323364 110.01235413 29.83192261 110.00770569 31.12875366 C109.49012756 34.38095093 109.49012756 34.38095093 108.11428833 36.55186462 C103.98300372 39.43144281 99.90623449 38.9379936 94.98597717 38.89852905 C93.91731918 38.90553833 92.84866119 38.91254761 91.74761963 38.91976929 C88.21230654 38.9373866 84.67779265 38.92571345 81.14247131 38.91220093 C78.68914638 38.91489455 76.23582249 38.91877588 73.78250122 38.92379761 C68.64026223 38.92969758 63.49830108 38.92111248 58.35609436 38.9024353 C51.75581497 38.87963395 45.15618572 38.8927739 38.55593014 38.91672516 C33.49024531 38.93115912 28.42471538 38.9265883 23.35902596 38.91621399 C20.92488593 38.9135407 18.49073195 38.9168375 16.0566082 38.9261322 C12.65898593 38.93625918 9.26242627 38.92084998 5.86488342 38.89852905 C4.34761658 38.91067444 4.34761658 38.91067444 2.79969788 38.92306519 C1.41384743 38.90614624 1.41384743 38.90614624 0 38.8888855 C-0.80321717 38.8873774 -1.60643435 38.88586929 -2.43399143 38.88431549 C-4.50987244 38.38095093 -4.50987244 38.38095093 -6.26747799 36.55246735 C-8.05158898 33.43411286 -7.89870167 30.88859245 -7.90830994 27.31454468 C-7.91118011 26.6392421 -7.91405029 25.96393951 -7.91700745 25.26817322 C-7.91904315 23.84522662 -7.91354776 22.42225173 -7.90098572 20.99935913 C-7.88489781 18.82188474 -7.90086171 16.64625913 -7.92002869 14.46884155 C-7.91804665 13.08407184 -7.9142038 11.69930327 -7.90830994 10.31454468 C-7.90492615 9.05698364 -7.90154236 7.79942261 -7.89805603 6.50375366 C-7.50987244 3.38095093 -7.50987244 3.38095093 -6.26747799 1.70958519 C-4.02938527 0.01773422 -2.78914433 0.00392763 0 0 Z " fill="#B68A02" transform="translate(14.509872436523438,182.61904907226563)"/>
<path d="M0 0 C0.33 0 0.66 0 1 0 C1 56.1 1 112.2 1 170 C-109.22 170 -219.44 170 -333 170 C-333 168.35 -333 166.7 -333 165 C-332.29117772 165.32480905 -331.58235544 165.64961811 -330.8520537 165.98426986 C-327.81175222 167.06704255 -325.5830571 167.25061029 -322.36714077 167.25168228 C-321.23799895 167.25689778 -320.10885713 167.26211327 -318.94549888 167.26748681 C-317.70990622 167.26302537 -316.47431355 167.25856392 -315.20127869 167.25396729 C-313.88492497 167.25708727 -312.56857124 167.26020725 -311.21232802 167.26342177 C-307.5600058 167.27177656 -303.907788 167.26764142 -300.25546539 167.26144934 C-296.31610076 167.2569287 -292.37675423 167.26390665 -288.43739319 167.26940918 C-280.72104018 167.27830872 -273.00472604 167.27637874 -265.2883715 167.2705839 C-259.01849831 167.26606995 -252.74863602 167.26545335 -246.47876167 167.26763153 C-245.14101071 167.26809123 -245.14101071 167.26809123 -243.77623447 167.26856022 C-241.96459106 167.26919966 -240.15294765 167.26984808 -238.34130425 167.2705054 C-221.34850107 167.27621025 -204.35571946 167.26964819 -187.36291981 167.25890467 C-172.77538301 167.24996748 -158.18787803 167.25152228 -143.6003418 167.26074219 C-126.66742715 167.27143943 -109.73453142 167.27566253 -92.80161387 167.26951766 C-90.99688344 167.26888055 -89.192153 167.26825181 -87.38742256 167.26763153 C-86.49941684 167.26732298 -85.61141112 167.26701443 -84.69649614 167.26669653 C-78.43205318 167.26496806 -72.16762219 167.26788792 -65.90318108 167.27259064 C-58.27202767 167.27819334 -50.64091542 167.27669584 -43.00976675 167.26602915 C-39.11462588 167.26076443 -35.2195537 167.25872929 -31.3244133 167.26532745 C-27.10679467 167.27236397 -22.88935023 167.2639756 -18.67173767 167.25396729 C-16.81500259 167.26065945 -16.81500259 167.26065945 -14.92075771 167.26748681 C-13.79422364 167.26227132 -12.66768956 167.25705582 -11.50701809 167.25168228 C-10.0461226 167.25119522 -10.0461226 167.25119522 -8.55571407 167.25069833 C-5.85426544 166.98570442 -4.23842875 166.52645405 -2 165 C-0.87461463 161.6238439 -0.86105534 159.04922166 -0.84178162 155.48908997 C-0.83437465 154.49294183 -0.83437465 154.49294183 -0.82681805 153.47666949 C-0.81143702 151.24722555 -0.80308081 149.01781043 -0.79467773 146.78833008 C-0.78509968 145.19184617 -0.77508965 143.5953648 -0.76467896 141.99888611 C-0.73761591 137.66037538 -0.71661392 133.32185376 -0.69667697 128.98330522 C-0.67482606 124.45090128 -0.64743299 119.91853098 -0.62062073 115.38615417 C-0.57068174 106.801442 -0.52574738 98.21671117 -0.48259836 89.63196248 C-0.4332363 79.85938435 -0.37831435 70.08683996 -0.32291877 60.31429446 C-0.20908021 40.20956107 -0.10224524 20.10479547 0 0 Z " fill="#454643" transform="translate(333,524)"/>
<path d="M0 0 C0.33 0 0.66 0 1 0 C1 1.98 1 3.96 1 6 C-109.22 6 -219.44 6 -333 6 C-332.67 5.01 -332.34 4.02 -332 3 C-331.34 3.33 -330.68 3.66 -330 4 C-328.22673906 4.09785207 -326.44977058 4.13100407 -324.67381477 4.13422108 C-323.53671251 4.13867892 -322.39961025 4.14313676 -321.22805035 4.14772969 C-319.33820788 4.14745315 -319.33820788 4.14745315 -317.41018677 4.14717102 C-316.06662542 4.15046883 -314.72306507 4.15419422 -313.37950599 4.1583125 C-309.67483258 4.16834987 -305.97017538 4.17205207 -302.26549029 4.17470181 C-298.27494792 4.17859965 -294.28441844 4.18817825 -290.29388428 4.19691467 C-280.651312 4.21669244 -271.00873865 4.22674635 -261.36615115 4.23564246 C-256.82898853 4.24002268 -252.29182707 4.24539012 -247.75466537 4.25063133 C-232.67898615 4.26764391 -217.60330767 4.28213956 -202.52762032 4.28938007 C-198.6139539 4.29129007 -194.70028749 4.29321039 -190.78662109 4.29516602 C-189.81386092 4.29564976 -188.84110075 4.2961335 -187.838863 4.2966319 C-172.06979812 4.30493774 -156.30080895 4.33028386 -140.53177716 4.36274669 C-124.35443546 4.39577956 -108.1771323 4.41382536 -91.99975669 4.41702431 C-82.91167689 4.41919277 -73.82370756 4.42799049 -64.73566055 4.45348549 C-56.99827929 4.47514092 -49.26103531 4.4832684 -41.52362718 4.47351871 C-37.57374067 4.46895912 -33.62413772 4.47095577 -29.6742897 4.49028015 C-26.06073837 4.50780709 -22.44767964 4.50700043 -18.83412383 4.49138286 C-16.90253939 4.48785452 -14.9709504 4.50411089 -13.03943646 4.52098733 C-11.89711871 4.51240644 -10.75480095 4.50382555 -9.57786751 4.49498463 C-8.59015991 4.49596144 -7.60245232 4.49693824 -6.58481419 4.49794465 C-3.30637905 3.86637924 -2.15273258 2.47325305 0 0 Z " fill="#272822" transform="translate(333,688)"/>
<path d="M0 0 C4.0743356 0.84881992 5.54405875 2.30225596 8 5.625 C8.625 8.625 8.625 8.625 8 11.625 C5.54405875 14.94774404 4.0743356 16.40118008 0 17.25 C-4.0743356 16.40118008 -5.54405875 14.94774404 -8 11.625 C-8.625 8.625 -8.625 8.625 -8 5.625 C-5.54405875 2.30225596 -4.0743356 0.84881992 0 0 Z " fill="#2D2F3A" transform="translate(15,6.375)"/>
<path d="M0 0 C3.26351969 0.37947903 5.0705954 1.34982155 7.6875 3.3125 C8.0175 4.3025 8.3475 5.2925 8.6875 6.3125 C9.3475 5.3225 10.0075 4.3325 10.6875 3.3125 C11.3475 3.3125 12.0075 3.3125 12.6875 3.3125 C12.0275 5.9525 11.3675 8.5925 10.6875 11.3125 C9.6975 11.3125 8.7075 11.3125 7.6875 11.3125 C7.0275 9.3325 6.3675 7.3525 5.6875 5.3125 C5.378125 6.116875 5.06875 6.92125 4.75 7.75 C3.6875 10.3125 3.6875 10.3125 2.6875 11.3125 C0.25 11.5 0.25 11.5 -2.3125 11.3125 C-4.3125 9.3125 -4.3125 9.3125 -4.5625 5.8125 C-4.28367161 1.90890252 -4.016926 0.54282784 0 0 Z " fill="#EAE7CE" transform="translate(62.3125,284.6875)"/>
<path d="M0 0 C0.33 0.66 0.66 1.32 1 2 C2.5778125 1.9690625 2.5778125 1.9690625 4.1875 1.9375 C8 2 8 2 10.6875 2.5625 C13.25579017 3.04839273 14.50404501 2.66069397 17 2 C19.33199388 1.92094936 21.66832622 1.91201231 24 2 C25 3 25 3 25.0625 5.5625 C25.041875 6.366875 25.02125 7.17125 25 8 C24.34 8 23.68 8 23 8 C23 6.35 23 4.7 23 3 C22.34 3 21.68 3 21 3 C21 4.65 21 6.3 21 8 C17.66666667 8 14.33333333 8 11 8 C10.67 7.34 10.34 6.68 10 6 C9.34 6.66 8.68 7.32 8 8 C5.31160615 8.26991906 2.70858064 8.08737357 0 8 C-1.125 2.25 -1.125 2.25 0 0 Z " fill="#5C5C5C" transform="translate(84,12)"/>
<path d="M0 0 C2.3125 1.4375 2.3125 1.4375 3.125 3.9375 C3.3125 6.4375 3.3125 6.4375 3.3125 8.4375 C1.3325 9.0975 -0.6475 9.7575 -2.6875 10.4375 C-3.3475 9.4475 -4.0075 8.4575 -4.6875 7.4375 C-5.3475 7.4375 -6.0075 7.4375 -6.6875 7.4375 C-6.6875 5.4575 -6.6875 3.4775 -6.6875 1.4375 C-4.10756343 -0.28245771 -3.0937542 -0.64752995 0 0 Z " fill="#6F818B" transform="translate(16.6875,10.5625)"/>
<path d="M0 0 C1.67542976 0.28604898 3.34385343 0.61781233 5 1 C5 2.32 5 3.64 5 5 C4.01 5.495 4.01 5.495 3 6 C3.99 6 4.98 6 6 6 C6 4.02 6 2.04 6 0 C6.66 0 7.32 0 8 0 C8 0.66 8 1.32 8 2 C8.66 2 9.32 2 10 2 C10 1.34 10 0.68 10 0 C10.66 0 11.32 0 12 0 C11.814375 0.763125 11.62875 1.52625 11.4375 2.3125 C10.77180827 5.08967375 10.77180827 5.08967375 12 8 C11.34 8 10.68 8 10 8 C10 7.34 10 6.68 10 6 C9.34 6 8.68 6 8 6 C8 6.66 8 7.32 8 8 C1.9453125 8.1953125 1.9453125 8.1953125 0 8 C-0.66 7.34 -1.32 6.68 -2 6 C-1.44444444 1.44444444 -1.44444444 1.44444444 0 0 Z " fill="#E8E7CF" transform="translate(62,360)"/>
<path d="M0 0 C0.94875 0.04125 1.8975 0.0825 2.875 0.125 C1 5 1 5 -0.125 6.125 C0.865 6.785 1.855 7.445 2.875 8.125 C2.215 9.445 1.555 10.765 0.875 12.125 C-2.095 11.63 -2.095 11.63 -5.125 11.125 C-5.17899736 9.66707116 -5.21779177 8.20857288 -5.25 6.75 C-5.28480469 5.53183594 -5.28480469 5.53183594 -5.3203125 4.2890625 C-4.98150185 0.53504049 -3.58663539 0.14346542 0 0 Z " fill="#E3DAB6" transform="translate(140.125,287.875)"/>
<path d="M0 0 C3 1 3 1 4.1875 3.0625 C4.455625 3.701875 4.72375 4.34125 5 5 C5.66 3.35 6.32 1.7 7 0 C7.66 0 8.32 0 9 0 C9 3.63 9 7.26 9 11 C7.35 10.67 5.7 10.34 4 10 C3.67 9.34 3.34 8.68 3 8 C2.67 8.99 2.34 9.98 2 11 C1.34 11 0.68 11 0 11 C0 7.37 0 3.74 0 0 Z " fill="#E5D9BB" transform="translate(24,357)"/>
<path d="M0 0 C3.875 0.875 3.875 0.875 5 2 C5.1328125 3.8125 5.1328125 3.8125 5.125 6 C5.12757813 6.721875 5.13015625 7.44375 5.1328125 8.1875 C5 10 5 10 4 11 C2.33382885 11.04063832 0.66611905 11.042721 -1 11 C-2.38550197 8.22899606 -2.1877467 6.0665294 -2 3 C-1.34 2.01 -0.68 1.02 0 0 Z " fill="#E5E5C9" transform="translate(269,285)"/>
<path d="M0 0 C0.87527344 0.00902344 1.75054687 0.01804688 2.65234375 0.02734375 C3.44769531 0.03894531 4.24304688 0.05054688 5.0625 0.0625 C6.0525 0.0625 7.0425 0.0625 8.0625 0.0625 C7.7325 2.0425 7.4025 4.0225 7.0625 6.0625 C6.4025 6.0625 5.7425 6.0625 5.0625 6.0625 C4.7325 5.4025 4.4025 4.7425 4.0625 4.0625 C3.7325 4.7225 3.4025 5.3825 3.0625 6.0625 C0.0625 6.0625 -2.9375 6.0625 -5.9375 6.0625 C-6.2675 4.4125 -6.5975 2.7625 -6.9375 1.0625 C-4.45344043 -0.17952979 -2.76852337 -0.03658841 0 0 Z " fill="#B5C0B3" transform="translate(140.9375,38.9375)"/>
<path d="M0 0 C1.4540625 0.0309375 1.4540625 0.0309375 2.9375 0.0625 C2.2775 2.0425 1.6175 4.0225 0.9375 6.0625 C1.5975 6.3925 2.2575 6.7225 2.9375 7.0625 C2.9375 8.3825 2.9375 9.7025 2.9375 11.0625 C0.9575 11.3925 -1.0225 11.7225 -3.0625 12.0625 C-3.94053368 8.33085686 -4.23673601 4.89569229 -4.0625 1.0625 C-3.0625 0.0625 -3.0625 0.0625 0 0 Z " fill="#E7DFBF" transform="translate(101.0625,503.9375)"/>
<path d="M0 0 C0.66 0 1.32 0 2 0 C2 3.96 2 7.92 2 12 C0.02 12 -1.96 12 -4 12 C-4.66 11.34 -5.32 10.68 -6 10 C-5.625 7.375 -5.625 7.375 -5 5 C-3.35 4.67 -1.7 4.34 0 4 C0 2.68 0 1.36 0 0 Z " fill="#ECE6C4" transform="translate(95,196)"/>
<path d="M0 0 C1.051875 -0.00386719 1.051875 -0.00386719 2.125 -0.0078125 C4 0.125 4 0.125 6 1.125 C6 5.085 6 9.045 6 13.125 C2.04 13.125 -1.92 13.125 -6 13.125 C-6 9.165 -6 5.205 -6 1.125 C-3.75487738 0.00243869 -2.48543351 -0.00913762 0 0 Z M-5 4.125 C-5 6.765 -5 9.405 -5 12.125 C-1.7 12.125 1.6 12.125 5 12.125 C5 9.485 5 6.845 5 4.125 C1.7 4.125 -1.6 4.125 -5 4.125 Z " fill="#040404" transform="translate(302,148.875)"/>
<path d="M0 0 C3.3 0 6.6 0 10 0 C10 2.97 10 5.94 10 9 C8.68 9 7.36 9 6 9 C5.67 7.35 5.34 5.7 5 4 C3.68 4.33 2.36 4.66 1 5 C0.67 6.32 0.34 7.64 0 9 C0 6.03 0 3.06 0 0 Z " fill="#7F8581" transform="translate(6,36)"/>
<path d="M0 0 C1.4540625 0.0309375 1.4540625 0.0309375 2.9375 0.0625 C1.0625 4.9375 1.0625 4.9375 -0.0625 6.0625 C0.9275 6.7225 1.9175 7.3825 2.9375 8.0625 C2.2775 9.3825 1.6175 10.7025 0.9375 12.0625 C-0.7125 11.7325 -2.3625 11.4025 -4.0625 11.0625 C-4.08938151 9.41675434 -4.10884123 7.77088587 -4.125 6.125 C-4.13660156 5.20847656 -4.14820312 4.29195313 -4.16015625 3.34765625 C-4.00919455 -0.18484756 -3.60673121 0.07360676 0 0 Z " fill="#4C686B" transform="translate(94.0625,60.9375)"/>
<path d="M0 0 C0.66 0 1.32 0 2 0 C2 3.96 2 7.92 2 12 C0.02 12 -1.96 12 -4 12 C-5 11 -5 11 -5.0625 7.9375 C-5.041875 6.968125 -5.02125 5.99875 -5 5 C-3.35 4.67 -1.7 4.34 0 4 C0 2.68 0 1.36 0 0 Z " fill="#D3BC74" transform="translate(43,196)"/>
<path d="M0 0 C0.66 0 1.32 0 2 0 C2 0.99 2 1.98 2 3 C3.98 3 5.96 3 8 3 C8.625 4.875 8.625 4.875 9 7 C8.34 7.66 7.68 8.32 7 9 C6.01 9 5.02 9 4 9 C4 9.99 4 10.98 4 12 C3.34 12 2.68 12 2 12 C2 11.01 2 10.02 2 9 C1.34 9 0.68 9 0 9 C0 6.03 0 3.06 0 0 Z " fill="#A5A597" transform="translate(178,36)"/>
<path d="M0 0 C0.66 0 1.32 0 2 0 C2 3.96 2 7.92 2 12 C0.02 12 -1.96 12 -4 12 C-5 11 -5 11 -5.1875 8.5625 C-5 6 -5 6 -3 4 C-2.01 4 -1.02 4 0 4 C0 2.68 0 1.36 0 0 Z " fill="#DAC9A2" transform="translate(283,500)"/>
<path d="M0 0 C0.66 0 1.32 0 2 0 C2 3.96 2 7.92 2 12 C0.02 12 -1.96 12 -4 12 C-5 11 -5 11 -5.1875 8.5625 C-5 6 -5 6 -3 4 C-2.01 4 -1.02 4 0 4 C0 2.68 0 1.36 0 0 Z " fill="#DAC9A2" transform="translate(283,428)"/>
<path d="M0 0 C0.66 0 1.32 0 2 0 C2 3.96 2 7.92 2 12 C0.02 12 -1.96 12 -4 12 C-5 11 -5 11 -5.1875 8.5625 C-5 6 -5 6 -3 4 C-2.01 4 -1.02 4 0 4 C0 2.68 0 1.36 0 0 Z " fill="#DAC9A2" transform="translate(283,356)"/>
<path d="M0 0 C0.66 0 1.32 0 2 0 C2 3.96 2 7.92 2 12 C0.02 12 -1.96 12 -4 12 C-5 11 -5 11 -5.1875 8.5625 C-5 6 -5 6 -3 4 C-2.01 4 -1.02 4 0 4 C0 2.68 0 1.36 0 0 Z " fill="#DAC9A2" transform="translate(283,284)"/>
<path d="M0 0 C0.66 0 1.32 0 2 0 C2 3.96 2 7.92 2 12 C0.02 12 -1.96 12 -4 12 C-5 11 -5 11 -5.1875 8.5625 C-5 6 -5 6 -3 4 C-2.01 4 -1.02 4 0 4 C0 2.68 0 1.36 0 0 Z " fill="#DAC9A2" transform="translate(34,196)"/>
<path d="M0 0 C3 1 3 1 4.1875 3.0625 C4.455625 3.701875 4.72375 4.34125 5 5 C5.33 3.35 5.66 1.7 6 0 C6.66 0 7.32 0 8 0 C8 3.63 8 7.26 8 11 C5 10 5 10 3 7 C2.67 8.32 2.34 9.64 2 11 C1.34 11 0.68 11 0 11 C0 7.37 0 3.74 0 0 Z " fill="#E6E6CA" transform="translate(24,429)"/>
<path d="M0 0 C2.375 -0.125 2.375 -0.125 5 0 C7 2 7 2 7.25 4.5 C7 7 7 7 5 9 C2.375 9.125 2.375 9.125 0 9 C0 6.03 0 3.06 0 0 Z " fill="#4A4A4A" transform="translate(29,11)"/>
<path d="M0 0 C0.66 0 1.32 0 2 0 C2 3.63 2 7.26 2 11 C0.35 11 -1.3 11 -3 11 C-3.66 10.34 -4.32 9.68 -5 9 C-4.625 6.375 -4.625 6.375 -4 4 C-2.68 3.67 -1.36 3.34 0 3 C0 2.01 0 1.02 0 0 Z " fill="#485D6B" transform="translate(66,151)"/>
<path d="M0 0 C0.66 0 1.32 0 2 0 C2.33 0.99 2.66 1.98 3 3 C3.66 2.01 4.32 1.02 5 0 C5.66 0 6.32 0 7 0 C7.33 0.99 7.66 1.98 8 3 C8.33 2.01 8.66 1.02 9 0 C9.66 0 10.32 0 11 0 C10.67 2.64 10.34 5.28 10 8 C9.01 8.33 8.02 8.66 7 9 C6.34 8.34 5.68 7.68 5 7 C4.67 7.66 4.34 8.32 4 9 C3.34 9 2.68 9 2 9 C0.50178941 5.62902617 0 3.79557881 0 0 Z " fill="#AABBB3" transform="translate(106,36)"/>
<path d="M0 0 C1.64574566 -0.02688151 3.29161413 -0.04634123 4.9375 -0.0625 C5.85402344 -0.07410156 6.77054687 -0.08570313 7.71484375 -0.09765625 C10 0 10 0 11 1 C11.04092937 3.33297433 11.04241723 5.66705225 11 8 C10.34 8 9.68 8 9 8 C9 6.02 9 4.04 9 2 C8.01 2 7.02 2 6 2 C6 3.98 6 5.96 6 8 C5.34 8 4.68 8 4 8 C4 6.02 4 4.04 4 2 C3.34 2 2.68 2 2 2 C2 3.98 2 5.96 2 8 C1.34 8 0.68 8 0 8 C0 5.36 0 2.72 0 0 Z " fill="#E7E8D6" transform="translate(84,360)"/>
<path d="M0 0 C0.99 0.33 1.98 0.66 3 1 C3.99 0.67 4.98 0.34 6 0 C6.66 0.66 7.32 1.32 8 2 C8.66 1.34 9.32 0.68 10 0 C9.67 2.64 9.34 5.28 9 8 C8.01 8 7.02 8 6 8 C5.67 7.34 5.34 6.68 5 6 C4.67 6.66 4.34 7.32 4 8 C3.01 8 2.02 8 1 8 C-0.35439668 5.29120665 -0.06501451 2.99066732 0 0 Z " fill="#E7E2C8" transform="translate(42,432)"/>
<path d="M0 0 C0.66 0 1.32 0 2 0 C2.33 0.99 2.66 1.98 3 3 C3.33 2.01 3.66 1.02 4 0 C4.99 0 5.98 0 7 0 C7.33 0.99 7.66 1.98 8 3 C8.33 2.01 8.66 1.02 9 0 C9.66 0 10.32 0 11 0 C10.67 2.31 10.34 4.62 10 7 C8.68 7 7.36 7 6 7 C4.68 7.33 3.36 7.66 2 8 C1.34 5.36 0.68 2.72 0 0 Z " fill="#E7E3CC" transform="translate(49,504)"/>
<path d="M0 0 C0.99 0.33 1.98 0.66 3 1 C3.94921875 3.28515625 3.94921875 3.28515625 4.6875 6.0625 C5.06455078 7.44115234 5.06455078 7.44115234 5.44921875 8.84765625 C5.63097656 9.55792969 5.81273437 10.26820313 6 11 C5.01 11 4.02 11 3 11 C3 10.01 3 9.02 3 8 C1.68 8 0.36 8 -1 8 C-1 8.99 -1 9.98 -1 11 C-1.66 11 -2.32 11 -3 11 C-2.69078116 9.54096742 -2.37751201 8.08279278 -2.0625 6.625 C-1.88847656 5.81289062 -1.71445312 5.00078125 -1.53515625 4.1640625 C-1 2 -1 2 0 0 Z " fill="#E9E8D4" transform="translate(23,197)"/>
<path d="M0 0 C1.64574566 -0.02688151 3.29161413 -0.04634123 4.9375 -0.0625 C5.85402344 -0.07410156 6.77054687 -0.08570313 7.71484375 -0.09765625 C10 0 10 0 11 1 C11.04092937 3.33297433 11.04241723 5.66705225 11 8 C10.34 8 9.68 8 9 8 C9 6.02 9 4.04 9 2 C8.01 2 7.02 2 6 2 C6 3.98 6 5.96 6 8 C5.67 8 5.34 8 5 8 C5 6.02 5 4.04 5 2 C4.01 2 3.02 2 2 2 C2 3.98 2 5.96 2 8 C1.34 8 0.68 8 0 8 C0 5.36 0 2.72 0 0 Z " fill="#F0EFDB" transform="translate(64,200)"/>
<path d="M0 0 C0.33 0 0.66 0 1 0 C1 3.63 1 7.26 1 11 C-0.65 11 -2.3 11 -4 11 C-5 10 -5 10 -5.0625 6.9375 C-5.041875 5.968125 -5.02125 4.99875 -5 4 C-3.35 3.67 -1.7 3.34 0 3 C0 2.01 0 1.02 0 0 Z " fill="#688A8B" transform="translate(81,120)"/>
<path d="M0 0 C0.33 0 0.66 0 1 0 C1 3.63 1 7.26 1 11 C-0.65 11 -2.3 11 -4 11 C-5 10 -5 10 -5.0625 6.9375 C-5.041875 5.968125 -5.02125 4.99875 -5 4 C-3.35 3.67 -1.7 3.34 0 3 C0 2.01 0 1.02 0 0 Z " fill="#688A8B" transform="translate(69,120)"/>
<path d="M0 0 C0.33 0.66 0.66 1.32 1 2 C3.31 2 5.62 2 8 2 C8 3.98 8 5.96 8 8 C5.36 8 2.72 8 0 8 C-1.125 2.25 -1.125 2.25 0 0 Z " fill="#4E4E4E" transform="translate(84,12)"/>
<path d="M0 0 C0.66 0 1.32 0 2 0 C2 1.32 2 2.64 2 4 C3.65 4.33 5.3 4.66 7 5 C7 7.31 7 9.62 7 12 C6.34 12 5.68 12 5 12 C5 10.02 5 8.04 5 6 C4.01 6 3.02 6 2 6 C2 7.98 2 9.96 2 12 C1.34 12 0.68 12 0 12 C0 8.04 0 4.08 0 0 Z " fill="#EFE9C2" transform="translate(76,500)"/>
<path d="M0 0 C1.2065625 0.0309375 1.2065625 0.0309375 2.4375 0.0625 C2.7675 2.7025 3.0975 5.3425 3.4375 8.0625 C1.1275 8.0625 -1.1825 8.0625 -3.5625 8.0625 C-3.5625 6.7425 -3.5625 5.4225 -3.5625 4.0625 C-2.9025 3.7325 -2.2425 3.4025 -1.5625 3.0625 C-2.2225 2.4025 -2.8825 1.7425 -3.5625 1.0625 C-2.5625 0.0625 -2.5625 0.0625 0 0 Z " fill="#E6DAB1" transform="translate(78.5625,359.9375)"/>
<path d="M0 0 C0.66 0 1.32 0 2 0 C2 1.32 2 2.64 2 4 C3.65 4.33 5.3 4.66 7 5 C7 7.31 7 9.62 7 12 C6.34 12 5.68 12 5 12 C5 10.02 5 8.04 5 6 C4.01 6 3.02 6 2 6 C2 7.98 2 9.96 2 12 C1.34 12 0.68 12 0 12 C0 8.04 0 4.08 0 0 Z " fill="#EFE9C2" transform="translate(49,356)"/>
<path d="M0 0 C1.2065625 0.0309375 1.2065625 0.0309375 2.4375 0.0625 C2.7675 2.7025 3.0975 5.3425 3.4375 8.0625 C1.1275 8.0625 -1.1825 8.0625 -3.5625 8.0625 C-3.5625 6.7425 -3.5625 5.4225 -3.5625 4.0625 C-2.9025 3.7325 -2.2425 3.4025 -1.5625 3.0625 C-2.2225 2.4025 -2.8825 1.7425 -3.5625 1.0625 C-2.5625 0.0625 -2.5625 0.0625 0 0 Z " fill="#E6DAB1" transform="translate(34.5625,287.9375)"/>
<path d="M0 0 C0.66 0 1.32 0 2 0 C2 1.32 2 2.64 2 4 C3.65 4.33 5.3 4.66 7 5 C7 7.31 7 9.62 7 12 C6.34 12 5.68 12 5 12 C5 10.02 5 8.04 5 6 C4.01 6 3.02 6 2 6 C2 7.98 2 9.96 2 12 C1.34 12 0.68 12 0 12 C0 8.04 0 4.08 0 0 Z " fill="#DCE1CF" transform="translate(101,284)"/>
<path d="M0 0 C1.66611905 -0.042721 3.33382885 -0.04063832 5 0 C6 1 6 1 6.0625 4.5625 C6.041875 5.696875 6.02125 6.83125 6 8 C4.02 8 2.04 8 0 8 C0 5.33333333 0 2.66666667 0 0 Z " fill="#EFEACA" transform="translate(288,504)"/>
<path d="M0 0 C1.66611905 -0.042721 3.33382885 -0.04063832 5 0 C6 1 6 1 6.0625 4.5625 C6.041875 5.696875 6.02125 6.83125 6 8 C4.02 8 2.04 8 0 8 C0 5.33333333 0 2.66666667 0 0 Z " fill="#EFEACA" transform="translate(288,432)"/>
<path d="M0 0 C1.66611905 -0.042721 3.33382885 -0.04063832 5 0 C6 1 6 1 6.0625 4.5625 C6.041875 5.696875 6.02125 6.83125 6 8 C4.02 8 2.04 8 0 8 C0 5.33333333 0 2.66666667 0 0 Z " fill="#EFEACA" transform="translate(288,360)"/>
<path d="M0 0 C1.66611905 -0.042721 3.33382885 -0.04063832 5 0 C6 1 6 1 6.0625 4.5625 C6.041875 5.696875 6.02125 6.83125 6 8 C4.02 8 2.04 8 0 8 C0 5.33333333 0 2.66666667 0 0 Z " fill="#EFEACA" transform="translate(36,360)"/>
<path d="M0 0 C1.66611905 -0.042721 3.33382885 -0.04063832 5 0 C6 1 6 1 6.0625 4.5625 C6.041875 5.696875 6.02125 6.83125 6 8 C4.02 8 2.04 8 0 8 C0 5.33333333 0 2.66666667 0 0 Z " fill="#EFEACA" transform="translate(288,288)"/>
<path d="M0 0 C1.98 0.495 1.98 0.495 4 1 C4.95024979 4.69541586 4.95024979 7.30458414 4 11 C2.68 10.67 1.36 10.34 0 10 C0.99 10 1.98 10 3 10 C2.24849977 6.72226496 2.24849977 6.72226496 -1 5 C-0.67 3.35 -0.34 1.7 0 0 Z " fill="#EFEFDD" transform="translate(269,501)"/>
<path d="M0 0 C1.98 0.495 1.98 0.495 4 1 C4.95024979 4.69541586 4.95024979 7.30458414 4 11 C2.68 10.67 1.36 10.34 0 10 C0.99 10 1.98 10 3 10 C2.24849977 6.72226496 2.24849977 6.72226496 -1 5 C-0.67 3.35 -0.34 1.7 0 0 Z " fill="#EFEFDD" transform="translate(269,429)"/>
<path d="M0 0 C0 1.32 0 2.64 0 4 C-1.32 4.33 -2.64 4.66 -4 5 C-3.01 5.66 -2.02 6.32 -1 7 C-2.66611905 7.042721 -4.33382885 7.04063832 -6 7 C-7 6 -7 6 -7.0625 2.9375 C-7.041875 1.968125 -7.02125 0.99875 -7 0 C-4.3333581 -1.33332095 -2.83319697 -0.67102033 0 0 Z " fill="#E8DEB7" transform="translate(71,433)"/>
<path d="M0 0 C1.67542976 0.28604898 3.34385343 0.61781233 5 1 C5 2.32 5 3.64 5 5 C3.68 5 2.36 5 1 5 C1 5.66 1 6.32 1 7 C2.32 6.67 3.64 6.34 5 6 C5 6.66 5 7.32 5 8 C2.625 8.125 2.625 8.125 0 8 C-0.66 7.34 -1.32 6.68 -2 6 C-1.44444444 1.44444444 -1.44444444 1.44444444 0 0 Z " fill="#E6DCBA" transform="translate(48,288)"/>
<path d="M0 0 C0.66 0 1.32 0 2 0 C2.33 1.98 2.66 3.96 3 6 C4.32 5.34 5.64 4.68 7 4 C6.814375 4.763125 6.62875 5.52625 6.4375 6.3125 C5.77180827 9.08967375 5.77180827 9.08967375 7 12 C6.01 11.67 5.02 11.34 4 11 C4 10.34 4 9.68 4 9 C3.34 9 2.68 9 2 9 C2 9.99 2 10.98 2 12 C1.34 12 0.68 12 0 12 C0 8.04 0 4.08 0 0 Z " fill="#E0E1D0" transform="translate(39,284)"/>
<path d="M0 0 C1.67542976 0.28604898 3.34385343 0.61781233 5 1 C5 2.32 5 3.64 5 5 C3.68 5 2.36 5 1 5 C1 5.66 1 6.32 1 7 C2.32 6.67 3.64 6.34 5 6 C5 6.66 5 7.32 5 8 C2.625 8.125 2.625 8.125 0 8 C-0.66 7.34 -1.32 6.68 -2 6 C-1.44444444 1.44444444 -1.44444444 1.44444444 0 0 Z " fill="#E6DCBA" transform="translate(57,200)"/>
<path d="M0 0 C2.31 0 4.62 0 7 0 C7 0.66 7 1.32 7 2 C5.35 2 3.7 2 2 2 C2 2.99 2 3.98 2 5 C3.32 5.33 4.64 5.66 6 6 C4.68 6 3.36 6 2 6 C2 7.32 2 8.64 2 10 C3.65 10 5.3 10 7 10 C7 10.33 7 10.66 7 11 C4.69 11 2.38 11 0 11 C0 7.37 0 3.74 0 0 Z " fill="#5B797E" transform="translate(8,120)"/>
<path d="M0 0 C2.31 0 4.62 0 7 0 C7 0.66 7 1.32 7 2 C5.35 2 3.7 2 2 2 C2 2.99 2 3.98 2 5 C3.32 5.33 4.64 5.66 6 6 C4.68 6 3.36 6 2 6 C2 7.32 2 8.64 2 10 C3.65 10 5.3 10 7 10 C7 10.33 7 10.66 7 11 C4.69 11 2.38 11 0 11 C0 7.37 0 3.74 0 0 Z " fill="#5B797E" transform="translate(8,58)"/>
<path d="M0 0 C1.67542976 0.28604898 3.34385343 0.61781233 5 1 C5 3.31 5 5.62 5 8 C3.02 8 1.04 8 -1 8 C-1 6.68 -1 5.36 -1 4 C-0.34 3.67 0.32 3.34 1 3 C0.34 2.34 -0.32 1.68 -1 1 C-0.67 0.67 -0.34 0.34 0 0 Z " fill="#E4DABD" transform="translate(62,504)"/>
<path d="M0 0 C1.67542976 0.28604898 3.34385343 0.61781233 5 1 C5 3.31 5 5.62 5 8 C3.02 8 1.04 8 -1 8 C-1 6.68 -1 5.36 -1 4 C-0.34 3.67 0.32 3.34 1 3 C0.34 2.34 -0.32 1.68 -1 1 C-0.67 0.67 -0.34 0.34 0 0 Z " fill="#E4DABD" transform="translate(34,504)"/>
<path d="M0 0 C1.67542976 0.28604898 3.34385343 0.61781233 5 1 C5 3.31 5 5.62 5 8 C3.02 8 1.04 8 -1 8 C-1 6.68 -1 5.36 -1 4 C-0.34 3.67 0.32 3.34 1 3 C0.34 2.34 -0.32 1.68 -1 1 C-0.67 0.67 -0.34 0.34 0 0 Z " fill="#E4DABD" transform="translate(73,432)"/>
<path d="M0 0 C1.67542976 0.28604898 3.34385343 0.61781233 5 1 C5 2.32 5 3.64 5 5 C3.68 5.33 2.36 5.66 1 6 C2.32 6.66 3.64 7.32 5 8 C2.625 8.125 2.625 8.125 0 8 C-0.66 7.34 -1.32 6.68 -2 6 C-1.44444444 1.44444444 -1.44444444 1.44444444 0 0 Z " fill="#ECEEE2" transform="translate(100,200)"/>
<path d="M0 0 C3.875 3.75 3.875 3.75 5 6 C5.33 4.02 5.66 2.04 6 0 C6.33 0 6.66 0 7 0 C7 3.63 7 7.26 7 11 C6.34 11 5.68 11 5 11 C3.375 8.5 3.375 8.5 2 6 C1.67 7.65 1.34 9.3 1 11 C0.67 11 0.34 11 0 11 C0 7.37 0 3.74 0 0 Z " fill="#EDF2E2" transform="translate(122,285)"/>
<path d="M0 0 C0 2.33333333 0 4.66666667 0 7 C0.33 7.99 0.66 8.98 1 10 C0.0925 9.62875 -0.815 9.2575 -1.75 8.875 C-4.88097015 7.69640701 -4.88097015 7.69640701 -7.375 8.875 C-7.91125 9.24625 -8.4475 9.6175 -9 10 C-8.34 9.01 -7.68 8.02 -7 7 C-6.83286431 4.37468476 -6.83286431 4.37468476 -7 2 C-6.21625 2.04125 -5.4325 2.0825 -4.625 2.125 C-1.83883881 2.28728734 -1.83883881 2.28728734 0 0 Z " fill="#515050" transform="translate(314,10)"/>
<path d="M0 0 C2.125 0.375 2.125 0.375 4 1 C4.33 2.32 4.66 3.64 5 5 C3.68 5.33 2.36 5.66 1 6 C1.99 6.66 2.98 7.32 4 8 C2.35 8 0.7 8 -1 8 C-1.625 5.125 -1.625 5.125 -2 2 C-1.34 1.34 -0.68 0.68 0 0 Z " fill="#677F7E" transform="translate(32,123)"/>
<path d="M0 0 C1.65 0.33 3.3 0.66 5 1 C5 3.31 5 5.62 5 8 C3.02 8 1.04 8 -1 8 C-1 6.68 -1 5.36 -1 4 C0.32 3.67 1.64 3.34 3 3 C3 2.34 3 1.68 3 1 C1.68 1.33 0.36 1.66 -1 2 C-0.67 1.34 -0.34 0.68 0 0 Z " fill="#556F71" transform="translate(86,123)"/>
<path d="M0 0 C2.125 0.375 2.125 0.375 4 1 C4.33 2.32 4.66 3.64 5 5 C3.68 5.33 2.36 5.66 1 6 C1.99 6.66 2.98 7.32 4 8 C2.35 8 0.7 8 -1 8 C-1.625 5.125 -1.625 5.125 -2 2 C-1.34 1.34 -0.68 0.68 0 0 Z " fill="#677F7E" transform="translate(62,61)"/>
<path d="M0 0 C2.125 0.375 2.125 0.375 4 1 C4.33 2.32 4.66 3.64 5 5 C3.68 5.33 2.36 5.66 1 6 C1.99 6.66 2.98 7.32 4 8 C2.35 8 0.7 8 -1 8 C-1.625 5.125 -1.625 5.125 -2 2 C-1.34 1.34 -0.68 0.68 0 0 Z " fill="#677F7E" transform="translate(32,61)"/>
<path d="M0 0 C1.65 0.33 3.3 0.66 5 1 C5 3.31 5 5.62 5 8 C3.02 8 1.04 8 -1 8 C-1 6.68 -1 5.36 -1 4 C0.32 3.67 1.64 3.34 3 3 C3 2.34 3 1.68 3 1 C1.68 1.33 0.36 1.66 -1 2 C-0.67 1.34 -0.34 0.68 0 0 Z " fill="#556F71" transform="translate(83,61)"/>
<path d="M0 0 C0.66 0 1.32 0 2 0 C2.66 0.99 3.32 1.98 4 3 C4.33 2.01 4.66 1.02 5 0 C5.66 0 6.32 0 7 0 C6.45400145 3.9129896 5.89829296 7.50314454 4 11 C1.875 11.8125 1.875 11.8125 0 12 C0 11.34 0 10.68 0 10 C0.66 9.67 1.32 9.34 2 9 C1.34 6.03 0.68 3.06 0 0 Z " fill="#E6E5C5" transform="translate(56,432)"/>
<path d="M0 0 C0.66 0 1.32 0 2 0 C2 1.32 2 2.64 2 4 C3.32 4 4.64 4 6 4 C6 6.64 6 9.28 6 12 C5.67 12 5.34 12 5 12 C4.67 10.02 4.34 8.04 4 6 C3.67 6 3.34 6 3 6 C2.67 7.98 2.34 9.96 2 12 C1.34 12 0.68 12 0 12 C0 8.04 0 4.08 0 0 Z " fill="#F1EEC9" transform="translate(144,284)"/>
<path d="M0 0 C1.99954746 -0.04254356 4.00041636 -0.04080783 6 0 C7 1 7 1 7.0625 4.5625 C7.041875 5.696875 7.02125 6.83125 7 8 C6.34 8 5.68 8 5 8 C5 6.02 5 4.04 5 2 C4.01 2 3.02 2 2 2 C2 3.98 2 5.96 2 8 C1.34 8 0.68 8 0 8 C0 5.36 0 2.72 0 0 Z " fill="#E4E7D1" transform="translate(81,200)"/>
<path d="M0 0 C0.33 0 0.66 0 1 0 C1 2.97 1 5.94 1 9 C-0.65 9 -2.3 9 -4 9 C-4.33 7.35 -4.66 5.7 -5 4 C-3.35 3.67 -1.7 3.34 0 3 C0 2.01 0 1.02 0 0 Z " fill="#8CA1AA" transform="translate(132,36)"/>
<path d="M0 0 C0.33 0 0.66 0 1 0 C1 2.97 1 5.94 1 9 C-0.65 9 -2.3 9 -4 9 C-4.33 7.35 -4.66 5.7 -5 4 C-3.35 3.67 -1.7 3.34 0 3 C0 2.01 0 1.02 0 0 Z " fill="#8CA1AA" transform="translate(46,36)"/>
<path d="M0 0 C2.0625 0.4375 2.0625 0.4375 4 1 C4 2.98 4 4.96 4 7 C2.0625 7.5625 2.0625 7.5625 0 8 C-1 7 -1 7 -1.125 4 C-1 1 -1 1 0 0 Z " fill="#BA8D0A" transform="translate(61,287)"/>
<path d="M0 0 C2.31 0.33 4.62 0.66 7 1 C6.67 3.31 6.34 5.62 6 8 C5.34 8 4.68 8 4 8 C3.67 6.35 3.34 4.7 3 3 C2.67 4.65 2.34 6.3 2 8 C1.34 8 0.68 8 0 8 C0 5.36 0 2.72 0 0 Z " fill="#41666B" transform="translate(35,154)"/>
<path d="M0 0 C0 1.32 0 2.64 0 4 C-1.32 4 -2.64 4 -4 4 C-4 4.66 -4 5.32 -4 6 C-2.68 6.33 -1.36 6.66 0 7 C-1.66611905 7.042721 -3.33382885 7.04063832 -5 7 C-6 6 -6 6 -6.0625 2.9375 C-6.041875 1.968125 -6.02125 0.99875 -6 0 C-3.50907189 -1.24546405 -2.58919267 -0.7767578 0 0 Z " fill="#546F72" transform="translate(53,124)"/>
<path d="M0 0 C1.67542976 0.28604898 3.34385343 0.61781233 5 1 C5 2.32 5 3.64 5 5 C3.68 5.33 2.36 5.66 1 6 C2.32 6.66 3.64 7.32 5 8 C3.33388095 8.042721 1.66617115 8.04063832 0 8 C-1 7 -1 7 -1.125 4 C-1 1 -1 1 0 0 Z " fill="#556F71" transform="translate(99,123)"/>
<path d="M0 0 C0.99 0 1.98 0 3 0 C3 1.32 3 2.64 3 4 C3.99 4 4.98 4 6 4 C6 4.66 6 5.32 6 6 C4.02 6.66 2.04 7.32 0 8 C-0.66 6.02 -1.32 4.04 -2 2 C-1.34 1.34 -0.68 0.68 0 0 Z " fill="#535E69" transform="translate(14,13)"/>
<path d="M0 0 C0.66 0 1.32 0 2 0 C2.33 0.99 2.66 1.98 3 3 C3.66 2.01 4.32 1.02 5 0 C5.66 0 6.32 0 7 0 C6.60304363 1.62992692 6.18167507 3.25392235 5.75 4.875 C5.51796875 5.77992188 5.2859375 6.68484375 5.046875 7.6171875 C4 10 4 10 1.890625 11.3203125 C0.95476562 11.65675781 0.95476562 11.65675781 0 12 C0 11.34 0 10.68 0 10 C0.66 9.67 1.32 9.34 2 9 C1.34 6.03 0.68 3.06 0 0 Z " fill="#E8E6CC" transform="translate(295,504)"/>
<path d="M0 0 C0.66 0 1.32 0 2 0 C2.33 0.99 2.66 1.98 3 3 C3.66 2.01 4.32 1.02 5 0 C5.66 0 6.32 0 7 0 C6.60304363 1.62992692 6.18167507 3.25392235 5.75 4.875 C5.51796875 5.77992188 5.2859375 6.68484375 5.046875 7.6171875 C4 10 4 10 1.890625 11.3203125 C0.95476562 11.65675781 0.95476562 11.65675781 0 12 C0 11.34 0 10.68 0 10 C0.66 9.67 1.32 9.34 2 9 C1.34 6.03 0.68 3.06 0 0 Z " fill="#E8E6CC" transform="translate(295,432)"/>
<path d="M0 0 C0.66 0 1.32 0 2 0 C2.33 0.99 2.66 1.98 3 3 C3.66 2.01 4.32 1.02 5 0 C5.66 0 6.32 0 7 0 C6.60304363 1.62992692 6.18167507 3.25392235 5.75 4.875 C5.51796875 5.77992188 5.2859375 6.68484375 5.046875 7.6171875 C4 10 4 10 1.890625 11.3203125 C0.95476562 11.65675781 0.95476562 11.65675781 0 12 C0 11.34 0 10.68 0 10 C0.66 9.67 1.32 9.34 2 9 C1.34 6.03 0.68 3.06 0 0 Z " fill="#E8E6CC" transform="translate(295,360)"/>
<path d="M0 0 C0.66 0 1.32 0 2 0 C2.33 0.99 2.66 1.98 3 3 C3.66 2.01 4.32 1.02 5 0 C5.66 0 6.32 0 7 0 C6.60304363 1.62992692 6.18167507 3.25392235 5.75 4.875 C5.51796875 5.77992188 5.2859375 6.68484375 5.046875 7.6171875 C4 10 4 10 1.890625 11.3203125 C0.95476562 11.65675781 0.95476562 11.65675781 0 12 C0 11.34 0 10.68 0 10 C0.66 9.67 1.32 9.34 2 9 C1.34 6.03 0.68 3.06 0 0 Z " fill="#E8E6CC" transform="translate(295,288)"/>
<path d="M0 0 C1.99954746 -0.04254356 4.00041636 -0.04080783 6 0 C7 1 7 1 7.0625 4.5625 C7.041875 5.696875 7.02125 6.83125 7 8 C6.34 8 5.68 8 5 8 C5 5.69 5 3.38 5 1 C4.01 1.495 4.01 1.495 3 2 C2.34227572 5.02934491 2.34227572 5.02934491 2 8 C1.34 8 0.68 8 0 8 C0 5.36 0 2.72 0 0 Z " fill="#5D7774" transform="translate(55,123)"/>
<path d="M0 0 C1.2065625 0.0309375 1.2065625 0.0309375 2.4375 0.0625 C2.7675 1.7125 3.0975 3.3625 3.4375 5.0625 C1.7875 5.0625 0.1375 5.0625 -1.5625 5.0625 C-1.5625 3.0625 -1.5625 3.0625 -0.5625 2.0625 C-1.2225 2.0625 -1.8825 2.0625 -2.5625 2.0625 C-2.5625 3.3825 -2.5625 4.7025 -2.5625 6.0625 C-0.9125 6.3925 0.7375 6.7225 2.4375 7.0625 C2.4375 7.3925 2.4375 7.7225 2.4375 8.0625 C0.77138095 8.105221 -0.89632885 8.10313832 -2.5625 8.0625 C-3.5625 7.0625 -3.5625 7.0625 -3.6875 4.0625 C-3.52180824 0.08589776 -3.52180824 0.08589776 0 0 Z " fill="#ECE6CC" transform="translate(37.5625,431.9375)"/>
<path d="M0 0 C1.2065625 0.0309375 1.2065625 0.0309375 2.4375 0.0625 C2.7675 1.7125 3.0975 3.3625 3.4375 5.0625 C1.7875 5.0625 0.1375 5.0625 -1.5625 5.0625 C-1.5625 3.0625 -1.5625 3.0625 -0.5625 2.0625 C-1.2225 2.0625 -1.8825 2.0625 -2.5625 2.0625 C-2.5625 3.3825 -2.5625 4.7025 -2.5625 6.0625 C-0.9125 6.3925 0.7375 6.7225 2.4375 7.0625 C2.4375 7.3925 2.4375 7.7225 2.4375 8.0625 C0.77138095 8.105221 -0.89632885 8.10313832 -2.5625 8.0625 C-3.5625 7.0625 -3.5625 7.0625 -3.6875 4.0625 C-3.52180824 0.08589776 -3.52180824 0.08589776 0 0 Z " fill="#ECE6CC" transform="translate(113.5625,287.9375)"/>
<path d="M0 0 C2.64 0 5.28 0 8 0 C8 0.66 8 1.32 8 2 C7.01 2 6.02 2 5 2 C5 4.97 5 7.94 5 11 C4.34 11 3.68 11 3 11 C3 8.03 3 5.06 3 2 C2.01 2 1.02 2 0 2 C0 1.34 0 0.68 0 0 Z " fill="#E4E8D6" transform="translate(92,285)"/>
<path d="M0 0 C1.2065625 0.0309375 1.2065625 0.0309375 2.4375 0.0625 C2.7675 1.7125 3.0975 3.3625 3.4375 5.0625 C1.7875 5.0625 0.1375 5.0625 -1.5625 5.0625 C-1.5625 3.0625 -1.5625 3.0625 -0.5625 2.0625 C-1.2225 2.0625 -1.8825 2.0625 -2.5625 2.0625 C-2.5625 3.3825 -2.5625 4.7025 -2.5625 6.0625 C-0.9125 6.3925 0.7375 6.7225 2.4375 7.0625 C2.4375 7.3925 2.4375 7.7225 2.4375 8.0625 C0.77138095 8.105221 -0.89632885 8.10313832 -2.5625 8.0625 C-3.5625 7.0625 -3.5625 7.0625 -3.6875 4.0625 C-3.52180824 0.08589776 -3.52180824 0.08589776 0 0 Z " fill="#ECE6CC" transform="translate(79.5625,287.9375)"/>
<path d="M0 0 C2.64 0 5.28 0 8 0 C8 0.66 8 1.32 8 2 C7.01 2 6.02 2 5 2 C5 4.97 5 7.94 5 11 C4.34 11 3.68 11 3 11 C3 8.03 3 5.06 3 2 C2.01 2 1.02 2 0 2 C0 1.34 0 0.68 0 0 Z " fill="#E4E8D6" transform="translate(23,285)"/>
<path d="M0 0 C1.65 0 3.3 0 5 0 C5.625 1.875 5.625 1.875 6 4 C5.34 4.66 4.68 5.32 4 6 C3.01 6 2.02 6 1 6 C0.67 6.99 0.34 7.98 0 9 C0 6.03 0 3.06 0 0 Z " fill="#555555" transform="translate(127,14)"/>
<path d="M0 0 C1.32 0 2.64 0 4 0 C4 2.97 4 5.94 4 9 C2.68 9 1.36 9 0 9 C0 7.02 0 5.04 0 3 C0.66 3 1.32 3 2 3 C2 2.34 2 1.68 2 1 C1.34 0.67 0.68 0.34 0 0 Z " fill="#959C9E" transform="translate(12,36)"/>
<path d="M0 0 C1.65 0 3.3 0 5 0 C5 1.65 5 3.3 5 5 C4.360625 5.103125 3.72125 5.20625 3.0625 5.3125 C2.381875 5.539375 1.70125 5.76625 1 6 C0.67 6.99 0.34 7.98 0 9 C0 6.03 0 3.06 0 0 Z " fill="#565656" transform="translate(120,14)"/>
<path d="M0 0 C1.65 0.33 3.3 0.66 5 1 C4.67 2.65 4.34 4.3 4 6 C2.35 5.67 0.7 5.34 -1 5 C-0.67 3.35 -0.34 1.7 0 0 Z " fill="#4F4F4F" transform="translate(64,14)"/>
<path d="M0 0 C0.33 1.32 0.66 2.64 1 4 C2.32 4 3.64 4 5 4 C5 2.68 5 1.36 5 0 C5.66 0 6.32 0 7 0 C7 2.97 7 5.94 7 9 C6.34 9 5.68 9 5 9 C5 7.68 5 6.36 5 5 C3.68 5 2.36 5 1 5 C0.67 6.32 0.34 7.64 0 9 C0 6.03 0 3.06 0 0 Z " fill="#B5C5AF" transform="translate(163,36)"/>
<path d="M0 0 C0.66 0 1.32 0 2 0 C2.33 2.31 2.66 4.62 3 7 C0.92446352 7.5534764 -0.84365964 8 -3 8 C-3 6.02 -3 4.04 -3 2 C-2.01 2 -1.02 2 0 2 C0 1.34 0 0.68 0 0 Z " fill="#B8BE9E" transform="translate(52,37)"/>
<path d="M0 0 C1.98 0 3.96 0 6 0 C6 2.64 6 5.28 6 8 C5.67 8 5.34 8 5 8 C5 6.02 5 4.04 5 2 C4.01 2 3.02 2 2 2 C2 3.98 2 5.96 2 8 C1.34 8 0.68 8 0 8 C0 5.36 0 2.72 0 0 Z " fill="#F1EECC" transform="translate(89,504)"/>
<path d="M0 0 C1.98 0 3.96 0 6 0 C7.43088528 2.86177057 6.59991697 4.93375773 6 8 C5.67 8 5.34 8 5 8 C4.67 6.02 4.34 4.04 4 2 C3.67 2 3.34 2 3 2 C2.67 3.98 2.34 5.96 2 8 C1.34 8 0.68 8 0 8 C0 5.36 0 2.72 0 0 Z " fill="#5C7E80" transform="translate(47,61)"/>
<path d="M0 0 C0.66 0 1.32 0 2 0 C2.66 1.32 3.32 2.64 4 4 C4.66 2.68 5.32 1.36 6 0 C7.32 0.33 8.64 0.66 10 1 C9.01 1.66 8.02 2.32 7 3 C5.78715124 6.05429073 5.78715124 6.05429073 5 9 C4.34 9 3.68 9 3 9 C2.01 6.03 1.02 3.06 0 0 Z " fill="#AFBBAB" transform="translate(68,36)"/>
<path d="M0 0 C0.66 0 1.32 0 2 0 C2 3.96 2 7.92 2 12 C0.35 12 -1.3 12 -3 12 C-2.01 11.67 -1.02 11.34 0 11 C0 9.02 0 7.04 0 5 C-0.66 4.67 -1.32 4.34 -2 4 C-1.34 4 -0.68 4 0 4 C0 2.68 0 1.36 0 0 Z " fill="#E6ECD7" transform="translate(43,196)"/>
<path d="M0 0 C1.32 0 2.64 0 4 0 C4 2.97 4 5.94 4 9 C4.66 9.33 5.32 9.66 6 10 C4.02 10 2.04 10 0 10 C0.66 9.67 1.32 9.34 2 9 C2 6.69 2 4.38 2 2 C1.34 2 0.68 2 0 2 C0 1.34 0 0.68 0 0 Z " fill="#EDE9CE" transform="translate(260,286)"/>
<path d="M0 0 C1.65 0 3.3 0 5 0 C5.33 1.65 5.66 3.3 6 5 C4.35 5 2.7 5 1 5 C0.67 3.35 0.34 1.7 0 0 Z " fill="#72848B" transform="translate(134,40)"/>
<path d="M0 0 C1.98 0 3.96 0 6 0 C5.25 2.4375 5.25 2.4375 4 5 C1.875 5.8125 1.875 5.8125 0 6 C0 4.02 0 2.04 0 0 Z " fill="#E7D493" transform="translate(137,288)"/>
<path d="M0 0 C0.66 0 1.32 0 2 0 C2.96070434 2.88211302 3.10581883 4.69850044 3.0625 7.6875 C3.05347656 8.49574219 3.04445312 9.30398437 3.03515625 10.13671875 C3.02355469 10.75160156 3.01195312 11.36648437 3 12 C2.67 11.01 2.34 10.02 2 9 C1.34 9 0.68 9 0 9 C0 6.03 0 3.06 0 0 Z " fill="#80828D" transform="translate(178,36)"/>
<path d="M0 0 C1.32 0 2.64 0 4 0 C4 0.66 4 1.32 4 2 C3.34 2 2.68 2 2 2 C2 2.66 2 3.32 2 4 C2.66 4 3.32 4 4 4 C4 5.32 4 6.64 4 8 C2.35 8 0.7 8 -1 8 C-0.67 7.34 -0.34 6.68 0 6 C0.99 6.33 1.98 6.66 3 7 C3 6.34 3 5.68 3 5 C1.68 4.67 0.36 4.34 -1 4 C-0.67 2.68 -0.34 1.36 0 0 Z " fill="#5F7573" transform="translate(76,61)"/>
<path d="M0 0 C2.375 -0.1875 2.375 -0.1875 5 0 C7 3 7 3 7 6 C6.34 6 5.68 6 5 6 C4.67 5.34 4.34 4.68 4 4 C3.67 4.66 3.34 5.32 3 6 C2.34 6 1.68 6 1 6 C0.67 4.02 0.34 2.04 0 0 Z " fill="#B3BFB2" transform="translate(85,39)"/>
<path d="M0 0 C2.31 0 4.62 0 7 0 C7 1.98 7 3.96 7 6 C6.01 6.495 6.01 6.495 5 7 C4.731875 6.360625 4.46375 5.72125 4.1875 5.0625 C3.11332248 2.66868314 3.11332248 2.66868314 0 2 C0 1.34 0 0.68 0 0 Z " fill="#30312C" transform="translate(327,0)"/>
<path d="M0 0 C0.66 0 1.32 0 2 0 C2 0.66 2 1.32 2 2 C2.66 2.33 3.32 2.66 4 3 C3.34 3 2.68 3 2 3 C2 4.98 2 6.96 2 9 C2.66 9.33 3.32 9.66 4 10 C2.68 10 1.36 10 0 10 C-1.125 2.25 -1.125 2.25 0 0 Z " fill="#647871" transform="translate(93,121)"/>
<path d="M0 0 C2.475 0.495 2.475 0.495 5 1 C5 2.65 5 4.3 5 6 C3.35 6 1.7 6 0 6 C0.185625 5.38125 0.37125 4.7625 0.5625 4.125 C1.23686176 1.95839822 1.23686176 1.95839822 0 0 Z " fill="#5F5F5F" transform="translate(37,14)"/>
<path d="M0 0 C0.99 0.33 1.98 0.66 3 1 C3.33 2.65 3.66 4.3 4 6 C2.68 6.33 1.36 6.66 0 7 C-1.125 2.25 -1.125 2.25 0 0 Z " fill="#E2D4A3" transform="translate(23,197)"/>
<path d="M0 0 C1.65 0.33 3.3 0.66 5 1 C5 1.66 5 2.32 5 3 C3.68 3 2.36 3 1 3 C1 3.66 1 4.32 1 5 C1.99 5.33 2.98 5.66 4 6 C2.35 5.67 0.7 5.34 -1 5 C-0.67 3.35 -0.34 1.7 0 0 Z " fill="#ADC2C5" transform="translate(18,39)"/>
<path d="M0 0 C1.32 0 2.64 0 4 0 C4 1.98 4 3.96 4 6 C2.35 6 0.7 6 -1 6 C-0.67 4.02 -0.34 2.04 0 0 Z " fill="#616161" transform="translate(114,14)"/>
<path d="M0 0 C0 2.31 0 4.62 0 7 C-1.32 6.67 -2.64 6.34 -4 6 C-3.625 3.5625 -3.625 3.5625 -3 1 C-1 0 -1 0 0 0 Z " fill="#9AABAC" transform="translate(58,154)"/>
<path d="M0 0 C0.66 0 1.32 0 2 0 C2 2.64 2 5.28 2 8 C1.01 7.67 0.02 7.34 -1 7 C-1.04254356 5.00045254 -1.04080783 2.99958364 -1 1 C-0.67 0.67 -0.34 0.34 0 0 Z " fill="#C18E0C" transform="translate(270,287)"/>
<path d="M0 0 C0.99 0.33 1.98 0.66 3 1 C3.6875 3.0625 3.6875 3.0625 4 5 C2.35 5 0.7 5 -1 5 C-1 1 -1 1 0 0 Z " fill="#DDCE98" transform="translate(289,507)"/>
<path d="M0 0 C1.32 0.33 2.64 0.66 4 1 C4.33 2.32 4.66 3.64 5 5 C3.35 4.67 1.7 4.34 0 4 C0 2.68 0 1.36 0 0 Z " fill="#DDC87F" transform="translate(269,501)"/>
<path d="M0 0 C0.99 0.33 1.98 0.66 3 1 C3.6875 3.0625 3.6875 3.0625 4 5 C2.35 5 0.7 5 -1 5 C-1 1 -1 1 0 0 Z " fill="#DDCE98" transform="translate(289,435)"/>
<path d="M0 0 C1.32 0.33 2.64 0.66 4 1 C4.33 2.32 4.66 3.64 5 5 C3.35 4.67 1.7 4.34 0 4 C0 2.68 0 1.36 0 0 Z " fill="#DDC87F" transform="translate(269,429)"/>
<path d="M0 0 C0.99 0.33 1.98 0.66 3 1 C3.6875 3.0625 3.6875 3.0625 4 5 C2.35 5 0.7 5 -1 5 C-1 1 -1 1 0 0 Z " fill="#DDCE98" transform="translate(289,363)"/>
<path d="M0 0 C0.99 0.33 1.98 0.66 3 1 C3.6875 3.0625 3.6875 3.0625 4 5 C2.35 5 0.7 5 -1 5 C-1 1 -1 1 0 0 Z " fill="#DDCE98" transform="translate(37,363)"/>
<path d="M0 0 C0.66 0 1.32 0 2 0 C2 3.63 2 7.26 2 11 C1.67 11 1.34 11 1 11 C0.67 9.35 0.34 7.7 0 6 C-0.99 6.495 -0.99 6.495 -2 7 C-1.34 4.69 -0.68 2.38 0 0 Z " fill="#E9EFE3" transform="translate(31,357)"/>
<path d="M0 0 C0.99 0.33 1.98 0.66 3 1 C3.6875 3.0625 3.6875 3.0625 4 5 C2.35 5 0.7 5 -1 5 C-1 1 -1 1 0 0 Z " fill="#DDCE98" transform="translate(289,291)"/>
<path d="M0 0 C0.99 0.33 1.98 0.66 3 1 C3 2.65 3 4.3 3 6 C1.68 5.67 0.36 5.34 -1 5 C-0.67 3.35 -0.34 1.7 0 0 Z " fill="#123242" transform="translate(78,124)"/>
<path d="M0 0 C0.99 0.33 1.98 0.66 3 1 C3 2.65 3 4.3 3 6 C1.68 5.67 0.36 5.34 -1 5 C-0.67 3.35 -0.34 1.7 0 0 Z " fill="#123242" transform="translate(66,124)"/>
<path d="M0 0 C0 0.66 0 1.32 0 2 C-0.61875 2.28875 -1.2375 2.5775 -1.875 2.875 C-4.13325765 3.93720042 -4.13325765 3.93720042 -6 6 C-6 5.01 -6 4.02 -6 3 C-6.66 3 -7.32 3 -8 3 C-8 2.34 -8 1.68 -8 1 C-5.29120665 -0.35439668 -2.99066732 -0.06501451 0 0 Z " fill="#0C303B" transform="translate(86,62)"/>
<path d="M0 0 C1.32 0 2.64 0 4 0 C4 0.99 4 1.98 4 3 C3.01 3.33 2.02 3.66 1 4 C1.99 4.66 2.98 5.32 4 6 C2.35 5.67 0.7 5.34 -1 5 C-0.67 3.35 -0.34 1.7 0 0 Z " fill="#C0CACA" transform="translate(172,39)"/>
<path d="M0 0 C1.32 0 2.64 0 4 0 C4 0.99 4 1.98 4 3 C3.01 3.33 2.02 3.66 1 4 C1.99 4.66 2.98 5.32 4 6 C2.35 5.67 0.7 5.34 -1 5 C-0.67 3.35 -0.34 1.7 0 0 Z " fill="#C4CAC2" transform="translate(80,39)"/>
<path d="M0 0 C1.65 0 3.3 0 5 0 C4.34 0.66 3.68 1.32 3 2 C2.60235737 3.98821313 2.26224651 5.98944339 2 8 C1.34 8 0.68 8 0 8 C0 5.36 0 2.72 0 0 Z " fill="#DEE7D6" transform="translate(41,504)"/>
<path d="M0 0 C1.65 0 3.3 0 5 0 C4.34 0.66 3.68 1.32 3 2 C2.60235737 3.98821313 2.26224651 5.98944339 2 8 C1.34 8 0.68 8 0 8 C0 5.36 0 2.72 0 0 Z " fill="#DEE7D6" transform="translate(80,432)"/>
<path d="M0 0 C0.66 0.33 1.32 0.66 2 1 C2 2.32 2 3.64 2 5 C0.35 5 -1.3 5 -3 5 C-2.625 3.0625 -2.625 3.0625 -2 1 C-1.34 0.67 -0.68 0.34 0 0 Z " fill="#E3D29A" transform="translate(65,360)"/>
<path d="M0 0 C1.65 0 3.3 0 5 0 C4.34 0.66 3.68 1.32 3 2 C2.60235737 3.98821313 2.26224651 5.98944339 2 8 C1.34 8 0.68 8 0 8 C0 5.36 0 2.72 0 0 Z " fill="#DEE7D6" transform="translate(84,288)"/>
<path d="M0 0 C0.66 0.33 1.32 0.66 2 1 C2 2.32 2 3.64 2 5 C0.35 5 -1.3 5 -3 5 C-2.625 3.0625 -2.625 3.0625 -2 1 C-1.34 0.67 -0.68 0.34 0 0 Z " fill="#E3D29A" transform="translate(103,200)"/>
<path d="M0 0 C0.33 0.66 0.66 1.32 1 2 C3.52733235 2.65555119 3.52733235 2.65555119 6 3 C6 3.66 6 4.32 6 5 C1.25 6.125 1.25 6.125 -1 5 C-0.67 3.35 -0.34 1.7 0 0 Z " fill="#C29724" transform="translate(301,506)"/>
<path d="M0 0 C2.0625 0.4375 2.0625 0.4375 4 1 C4 1.99 4 2.98 4 4 C2.68 4.33 1.36 4.66 0 5 C-0.5625 3.0625 -0.5625 3.0625 -1 1 C-0.67 0.67 -0.34 0.34 0 0 Z " fill="#D1BA70" transform="translate(268,507)"/>
<path d="M0 0 C0.33 0.66 0.66 1.32 1 2 C3.52733235 2.65555119 3.52733235 2.65555119 6 3 C6 3.66 6 4.32 6 5 C1.25 6.125 1.25 6.125 -1 5 C-0.67 3.35 -0.34 1.7 0 0 Z " fill="#C29724" transform="translate(301,434)"/>
<path d="M0 0 C2.0625 0.4375 2.0625 0.4375 4 1 C4 1.99 4 2.98 4 4 C2.68 4.33 1.36 4.66 0 5 C-0.5625 3.0625 -0.5625 3.0625 -1 1 C-0.67 0.67 -0.34 0.34 0 0 Z " fill="#D1BA70" transform="translate(268,435)"/>
<path d="M0 0 C0.33 0.66 0.66 1.32 1 2 C3.52733235 2.65555119 3.52733235 2.65555119 6 3 C6 3.66 6 4.32 6 5 C1.25 6.125 1.25 6.125 -1 5 C-0.67 3.35 -0.34 1.7 0 0 Z " fill="#C29724" transform="translate(301,362)"/>
<path d="M0 0 C1.32 0.33 2.64 0.66 4 1 C3.01 1.495 3.01 1.495 2 2 C2 3.98 2 5.96 2 8 C1.34 8 0.68 8 0 8 C0 5.36 0 2.72 0 0 Z " fill="#F0E8BB" transform="translate(84,360)"/>
<path d="M0 0 C1.134375 0.020625 2.26875 0.04125 3.4375 0.0625 C0.4375 2.0625 0.4375 2.0625 -1.5625 2.0625 C-1.8925 3.3825 -2.2225 4.7025 -2.5625 6.0625 C-3.2225 4.4125 -3.8825 2.7625 -4.5625 1.0625 C-3.5625 0.0625 -3.5625 0.0625 0 0 Z " fill="#C19310" transform="translate(76.5625,361.9375)"/>
<path d="M0 0 C0.33 0.66 0.66 1.32 1 2 C3.52733235 2.65555119 3.52733235 2.65555119 6 3 C6 3.66 6 4.32 6 5 C1.25 6.125 1.25 6.125 -1 5 C-0.67 3.35 -0.34 1.7 0 0 Z " fill="#C29724" transform="translate(301,290)"/>
<path d="M0 0 C1.32 0.33 2.64 0.66 4 1 C4 3.31 4 5.62 4 8 C3.34 8 2.68 8 2 8 C2 6.02 2 4.04 2 2 C1.34 2 0.68 2 0 2 C0 1.34 0 0.68 0 0 Z " fill="#E2E8D1" transform="translate(71,200)"/>
<path d="M0 0 C1.32 0.33 2.64 0.66 4 1 C3.34 3.31 2.68 5.62 2 8 C1.34 8 0.68 8 0 8 C0 5.36 0 2.72 0 0 Z " fill="#F2EDC6" transform="translate(107,200)"/>
<path d="M0 0 C1.32 0.33 2.64 0.66 4 1 C3.34 3.31 2.68 5.62 2 8 C1.34 8 0.68 8 0 8 C0 5.36 0 2.72 0 0 Z " fill="#F2EDC6" transform="translate(51,200)"/>
<path d="M0 0 C2 3 2 3 2 6 C2.66 6 3.32 6 4 6 C3.34 7.65 2.68 9.3 2 11 C1.34 10.67 0.68 10.34 0 10 C0 6.7 0 3.4 0 0 Z " fill="#5B676E" transform="translate(76,154)"/>
<path d="M0 0 C1.32 0 2.64 0 4 0 C3.67 1.65 3.34 3.3 3 5 C2.01 4.67 1.02 4.34 0 4 C0 2.68 0 1.36 0 0 Z " fill="#C49822" transform="translate(91,202)"/>
<path d="M0 0 C1.98 0.99 1.98 0.99 4 2 C3.34 3.98 2.68 5.96 2 8 C1.34 8 0.68 8 0 8 C0 5.36 0 2.72 0 0 Z " fill="#4F7895" transform="translate(35,154)"/>
<path d="M0 0 C1.98 0.495 1.98 0.495 4 1 C4 1.99 4 2.98 4 4 C2.35 4 0.7 4 -1 4 C-0.67 2.68 -0.34 1.36 0 0 Z " fill="#3C5B60" transform="translate(33,124)"/>
<path d="M0 0 C1.98 0.495 1.98 0.495 4 1 C4 1.99 4 2.98 4 4 C2.35 4 0.7 4 -1 4 C-0.67 2.68 -0.34 1.36 0 0 Z " fill="#3C5B60" transform="translate(63,62)"/>
<path d="M0 0 C1.98 0.495 1.98 0.495 4 1 C4 1.99 4 2.98 4 4 C2.35 4 0.7 4 -1 4 C-0.67 2.68 -0.34 1.36 0 0 Z " fill="#3C5B60" transform="translate(33,62)"/>
<path d="M0 0 C1.32 0 2.64 0 4 0 C4.33 0.99 4.66 1.98 5 3 C3.02 3.33 1.04 3.66 -1 4 C-0.67 2.68 -0.34 1.36 0 0 Z " fill="#D7C286" transform="translate(99,512)"/>
<path d="M0 0 C0.33 0.66 0.66 1.32 1 2 C1.66 2.33 2.32 2.66 3 3 C2.34 3 1.68 3 1 3 C1.57452746 6.93075644 1.57452746 6.93075644 4 10 C2.68 10 1.36 10 0 10 C-1.125 2.25 -1.125 2.25 0 0 Z " fill="#F4F7EE" transform="translate(44,358)"/>
<path d="M0 0 C0.33 0.66 0.66 1.32 1 2 C1.66 2.33 2.32 2.66 3 3 C2.34 3 1.68 3 1 3 C1.57452746 6.93075644 1.57452746 6.93075644 4 10 C2.68 10 1.36 10 0 10 C-1.125 2.25 -1.125 2.25 0 0 Z " fill="#F4F7EE" transform="translate(153,286)"/>
<path d="M0 0 C0.66 0 1.32 0 2 0 C2 1.98 2 3.96 2 6 C1.01 6 0.02 6 -1 6 C-1.042721 4.33388095 -1.04063832 2.66617115 -1 1 C-0.67 0.67 -0.34 0.34 0 0 Z " fill="#A3B1B9" transform="translate(64,155)"/>
</svg>
