<?xml version="1.0" encoding="UTF-8"?>
<!DOCTYPE svg PUBLIC "-//W3C//DTD SVG 1.1//EN" "http://www.w3.org/Graphics/SVG/1.1/DTD/svg11.dtd">
<svg xmlns="http://www.w3.org/2000/svg" version="1.1" width="334px" height="694px" style="shape-rendering:geometricPrecision; text-rendering:geometricPrecision; image-rendering:optimizeQuality; fill-rule:evenodd; clip-rule:evenodd" xmlns:xlink="http://www.w3.org/1999/xlink">
<g><path style="opacity:1" fill="#212121" d="M 332.5,30.5 C 221.5,30.5 110.5,30.5 -0.5,30.5C -0.5,21.5 -0.5,12.5 -0.5,3.5C 0.88159,2.19947 2.54826,1.36614 4.5,1C 111.833,0.333333 219.167,0.333333 326.5,1C 329.667,1.5 331.5,3.33333 332,6.5C 332.5,14.4931 332.666,22.4931 332.5,30.5 Z"/></g>
<g><path style="opacity:1" fill="#464743" d="M -0.5,-0.5 C 110.833,-0.5 222.167,-0.5 333.5,-0.5C 333.5,172.833 333.5,346.167 333.5,519.5C 332.501,428.335 332.167,337.002 332.5,245.5C 332.5,180.5 332.5,115.5 332.5,50.5C 332.5,43.8333 332.5,37.1667 332.5,30.5C 332.666,22.4931 332.5,14.4931 332,6.5C 331.5,3.33333 329.667,1.5 326.5,1C 219.167,0.333333 111.833,0.333333 4.5,1C 2.54826,1.36614 0.88159,2.19947 -0.5,3.5C -0.5,2.16667 -0.5,0.833333 -0.5,-0.5 Z"/></g>
<g><path style="opacity:1" fill="#545454" d="M 28.5,10.5 C 35.4863,10.331 37.153,13.1643 33.5,19C 31.8659,19.4935 30.1992,19.6602 28.5,19.5C 28.5,16.5 28.5,13.5 28.5,10.5 Z"/></g>
<g><path style="opacity:1" fill="#747474" d="M 258.5,9.5 C 261.833,9.5 265.167,9.5 268.5,9.5C 268.5,12.8333 268.5,16.1667 268.5,19.5C 265.167,19.5 261.833,19.5 258.5,19.5C 258.5,16.1667 258.5,12.8333 258.5,9.5 Z"/></g>
<g><path style="opacity:1" fill="#212121" d="M 259.5,10.5 C 262.167,10.5 264.833,10.5 267.5,10.5C 267.5,13.1667 267.5,15.8333 267.5,18.5C 264.833,18.5 262.167,18.5 259.5,18.5C 259.5,15.8333 259.5,13.1667 259.5,10.5 Z"/></g>
<g><path style="opacity:1" fill="#5e5e5e" d="M 36.5,14.5 C 40.2617,12.7197 43.0951,13.7197 45,17.5C 46.0635,13.7054 48.5635,12.5388 52.5,14C 51.5,14.3333 50.5,14.6667 49.5,15C 50.6956,15.6543 50.6956,16.1543 49.5,16.5C 48.8076,15.9747 48.3076,15.3081 48,14.5C 46.7672,17.4171 45.2672,20.0837 43.5,22.5C 43.8976,19.9599 43.3976,17.2932 42,14.5C 41.5065,16.1341 41.3398,17.8008 41.5,19.5C 39.8333,19.5 38.1667,19.5 36.5,19.5C 36.1367,17.0885 37.1367,15.5885 39.5,15C 38.552,14.5172 37.552,14.3505 36.5,14.5 Z"/></g>
<g><path style="opacity:1" fill="#555555" d="M 63.5,13.5 C 68.1585,13.0146 69.4919,14.848 67.5,19C 62.7282,19.8104 61.3948,17.9771 63.5,13.5 Z"/></g>
<g><path style="opacity:1" fill="#707070" d="M 76.5,13.5 C 78.1667,13.5 79.8333,13.5 81.5,13.5C 81.6369,20.6258 80.9702,20.9592 79.5,14.5C 77.9309,15.714 77.0976,17.3807 77,19.5C 76.5045,17.5273 76.3379,15.5273 76.5,13.5 Z"/></g>
<g><path style="opacity:1" fill="#575757" d="M 83.5,11.5 C 84.4745,12.635 85.6412,13.635 87,14.5C 89.5075,13.933 92.0075,13.5997 94.5,13.5C 95.2508,14.376 95.7508,15.376 96,16.5C 96.8695,13.2374 98.2028,12.9041 100,15.5C 102.121,13.5426 104.621,13.0426 107.5,14C 108.76,15.8138 108.76,17.6471 107.5,19.5C 106.58,13.0538 105.246,13.0538 103.5,19.5C 102.719,18.2713 102.219,16.938 102,15.5C 101.065,20.0018 99.7313,20.3351 98,16.5C 96.4471,20.2991 95.1138,20.2991 94,16.5C 93.1667,17.3333 92.3333,18.1667 91.5,19C 88.7287,18.6533 86.0621,18.82 83.5,19.5C 83.0312,16.6613 83.0312,13.9946 83.5,11.5 Z"/></g>
<g><path style="opacity:1" fill="#5b5b5b" d="M 119.5,13.5 C 121.167,13.5 122.833,13.5 124.5,13.5C 124.5,15.5 124.5,17.5 124.5,19.5C 123.167,19.5 121.833,19.5 120.5,19.5C 119.223,20.3167 118.89,18.3167 119.5,13.5 Z"/></g>
<g><path style="opacity:1" fill="#5a5a5a" d="M 126.5,13.5 C 131.376,12.4044 133.043,14.0711 131.5,18.5C 130.311,19.4287 128.978,19.762 127.5,19.5C 126.223,20.3167 125.89,18.3167 126.5,13.5 Z"/></g>
<g><path style="opacity:1" fill="#64737e" d="M 13.5,9.5 C 15.8236,10.3298 17.8236,11.6631 19.5,13.5C 19.0233,14.4776 18.3567,15.3109 17.5,16C 18.3081,16.3076 18.9747,16.8076 19.5,17.5C 17.7127,18.316 16.0461,19.316 14.5,20.5C 13.0295,19.6195 12.1962,18.2861 12,16.5C 11.1072,17.7112 10.2739,17.7112 9.5,16.5C 10.6155,15.4016 10.6155,14.2349 9.5,13C 10.6856,11.5879 12.019,10.4212 13.5,9.5 Z"/></g>
<g><path style="opacity:1" fill="#2c2c30" d="M -0.5,30.5 C 110.5,30.5 221.5,30.5 332.5,30.5C 332.5,37.1667 332.5,43.8333 332.5,50.5C 221.5,50.5 110.5,50.5 -0.5,50.5C -0.5,43.8333 -0.5,37.1667 -0.5,30.5 Z"/></g>
<g><path style="opacity:1" fill="#c4bfb1" d="M 40.5,43.5 C 39.0813,44.4511 37.4147,44.7845 35.5,44.5C 35.5,41.5 35.5,38.5 35.5,35.5C 37.1992,35.3398 38.8659,35.5065 40.5,36C 39.552,36.4828 38.552,36.6495 37.5,36.5C 37.5,37.5 37.5,38.5 37.5,39.5C 40.1667,39.1667 42.8333,38.8333 45.5,38.5C 45.281,37.325 45.6143,36.325 46.5,35.5C 47.4841,38.4281 47.8174,41.4281 47.5,44.5C 45.0504,44.702 42.717,44.3686 40.5,43.5 Z"/></g>
<g><path style="opacity:1" fill="#ccbf99" d="M 51.5,36.5 C 52.9221,36.7496 53.9221,37.583 54.5,39C 53.1667,40.6667 53.1667,42.3333 54.5,44C 53.552,44.4828 52.552,44.6495 51.5,44.5C 51.3232,37.8656 50.8232,37.8656 50,44.5C 49.3628,41.59 49.8628,38.9233 51.5,36.5 Z"/></g>
<g><path style="opacity:1" fill="#bdbfb8" d="M 105.5,35.5 C 107.48,36.8475 108.647,38.8475 109,41.5C 109.495,39.5273 109.662,37.5273 109.5,35.5C 110.5,35.5 111.5,35.5 112.5,35.5C 113.004,39.3354 114.004,39.3354 115.5,35.5C 115.833,36.1667 116.167,36.8333 116.5,37.5C 116.242,40.2602 115.242,42.5936 113.5,44.5C 112.833,43.1667 112.167,41.8333 111.5,40.5C 110.852,42.1492 109.852,43.4825 108.5,44.5C 106.899,41.6957 105.899,38.6957 105.5,35.5 Z"/></g>
<g><path style="opacity:1" fill="#bebaad" d="M 131.5,35.5 C 133.388,37.9878 134.055,40.9878 133.5,44.5C 131.208,44.7564 129.041,44.4231 127,43.5C 125.823,39.5082 127.323,37.8416 131.5,38.5C 131.5,37.5 131.5,36.5 131.5,35.5 Z"/></g>
<g><path style="opacity:1" fill="#d1bea1" d="M 5.5,35.5 C 7.19919,35.3398 8.86586,35.5065 10.5,36C 9.55198,36.4828 8.55198,36.6495 7.5,36.5C 7.5,37.5 7.5,38.5 7.5,39.5C 11.5,39.8333 11.5,40.1667 7.5,40.5C 7.76202,41.9778 7.42869,43.3112 6.5,44.5C 5.51592,41.5719 5.18259,38.5719 5.5,35.5 Z"/></g>
<g><path style="opacity:1" fill="#3a2b3b" d="M 43.5,39.5 C 46.1402,40.7936 46.1402,42.127 43.5,43.5C 42.3744,42.1916 42.3744,40.8583 43.5,39.5 Z"/></g>
<g><path style="opacity:1" fill="#3a2b3b" d="M 129.5,39.5 C 132.14,40.7936 132.14,42.127 129.5,43.5C 128.374,42.1916 128.374,40.8583 129.5,39.5 Z"/></g>
<g><path style="opacity:1" fill="#c5ba9f" d="M 162.5,35.5 C 164.176,36.1834 164.843,37.5168 164.5,39.5C 165.5,39.5 166.5,39.5 167.5,39.5C 168.258,34.2483 168.925,34.415 169.5,40C 168.925,45.585 168.258,45.7517 167.5,40.5C 166.5,40.5 165.5,40.5 164.5,40.5C 164.762,41.9778 164.429,43.3112 163.5,44.5C 162.516,41.5719 162.183,38.5719 162.5,35.5 Z"/></g>
<g><path style="opacity:1" fill="#c4cac8" d="M 17.5,38.5 C 23.4011,38.9397 23.7344,40.273 18.5,42.5C 19.7287,43.2811 21.062,43.7811 22.5,44C 17.0833,45.4196 15.4166,43.5863 17.5,38.5 Z"/></g>
<g><path style="opacity:1" fill="#282a2c" d="M 40.5,43.5 C 39.5,43.5 38.5,43.5 37.5,43.5C 37.5,42.5 37.5,41.5 37.5,40.5C 38.5,40.5 39.5,40.5 40.5,40.5C 40.5,41.5 40.5,42.5 40.5,43.5 Z"/></g>
<g><path style="opacity:1" fill="#cbe0cf" d="M 120.5,38.5 C 122.167,38.5 123.833,38.5 125.5,38.5C 125.662,40.5273 125.495,42.5273 125,44.5C 123.667,37.8333 122.333,37.8333 121,44.5C 120.505,42.5273 120.338,40.5273 120.5,38.5 Z"/></g>
<g><path style="opacity:1" fill="#cfcac0" d="M 171.5,38.5 C 177.401,38.9397 177.734,40.273 172.5,42.5C 173.376,43.2508 174.376,43.7508 175.5,44C 170.728,44.8104 169.395,42.9771 171.5,38.5 Z"/></g>
<g><path style="opacity:1" fill="#c6bfab" d="M 79.5,38.5 C 81.674,38.9202 83.674,38.9202 85.5,38.5C 86.2811,39.7287 86.7811,41.062 87,42.5C 87.5468,37.6517 88.8801,37.3184 91,41.5C 91.3333,40.5 91.6667,39.5 92,38.5C 92.7562,40.8087 92.2562,42.8087 90.5,44.5C 89.7189,43.2713 89.2189,41.938 89,40.5C 87.9798,44.9725 86.8132,45.3059 85.5,41.5C 83.712,41.2148 82.0453,41.5481 80.5,42.5C 84.3347,44.1632 84.0014,44.6632 79.5,44C 78.2475,42.1722 78.2475,40.3388 79.5,38.5 Z"/></g>
<g><path style="opacity:1" fill="#c0c0b1" d="M 135.5,38.5 C 137.674,38.9202 139.674,38.9202 141.5,38.5C 142.281,39.7287 142.781,41.062 143,42.5C 143.547,37.6517 144.88,37.3184 147,41.5C 147.249,40.376 147.749,39.376 148.5,38.5C 148.833,38.8333 149.167,39.1667 149.5,39.5C 149.047,41.5652 148.047,43.2318 146.5,44.5C 145.749,43.624 145.249,42.624 145,41.5C 143.447,45.2991 142.114,45.2991 141,41.5C 139.713,44.1446 137.547,45.1446 134.5,44.5C 134.325,42.3792 134.659,40.3792 135.5,38.5 Z"/></g>
<g><path style="opacity:1" fill="#2e2a41" d="M 136.5,39.5 C 137.586,39.62 138.253,40.2867 138.5,41.5C 137.696,43.9573 136.696,43.9573 135.5,41.5C 135.863,40.8165 136.196,40.1499 136.5,39.5 Z"/></g>
<g><path style="opacity:1" fill="#c5b7a0" d="M 68.5,35.5 C 69.3037,37.1887 70.3037,38.8554 71.5,40.5C 72.3567,39.2643 73.0234,37.931 73.5,36.5C 74.723,35.3861 76.0563,35.2195 77.5,36C 74.6619,38.1527 72.6619,40.9861 71.5,44.5C 69.1329,42.0498 68.1329,39.0498 68.5,35.5 Z"/></g>
<g><path style="opacity:1" fill="#d5d3c1" d="M 180.5,38.5 C 184.945,37.8735 186.612,39.5402 185.5,43.5C 184.311,44.4287 182.978,44.762 181.5,44.5C 180.223,45.3167 179.89,43.3167 180.5,38.5 Z"/></g>
<g><path style="opacity:1" fill="#45373a" d="M 182.5,39.5 C 184.104,40.287 184.771,41.6203 184.5,43.5C 183.5,43.5 182.5,43.5 181.5,43.5C 181.433,42.0413 181.766,40.7079 182.5,39.5 Z"/></g>
<g><path style="opacity:1" fill="#002b36" d="M -0.5,50.5 C 110.5,50.5 221.5,50.5 332.5,50.5C 332.5,115.5 332.5,180.5 332.5,245.5C 221.5,245.5 110.5,245.5 -0.5,245.5C -0.5,180.5 -0.5,115.5 -0.5,50.5 Z"/></g>
<g><path style="opacity:1" fill="#707f75" d="M 49.5,61.5 C 51.7183,61.4224 54.0517,61.2557 56.5,61C 57.6023,63.4009 57.769,65.9009 57,68.5C 55.7633,59.2235 54.2633,59.2235 52.5,68.5C 52.026,65.7833 51.026,63.4499 49.5,61.5 Z"/></g>
<g><path style="opacity:1" fill="#78857e" d="M 8.5,57.5 C 10.604,57.2011 12.604,57.5344 14.5,58.5C 12.9547,59.4519 11.288,59.7852 9.5,59.5C 9.5,60.5 9.5,61.5 9.5,62.5C 14.8333,62.8333 14.8333,63.1667 9.5,63.5C 9.5,64.8333 9.5,66.1667 9.5,67.5C 11.1992,67.3398 12.8659,67.5065 14.5,68C 12.5273,68.4955 10.5273,68.6621 8.5,68.5C 8.5,64.8333 8.5,61.1667 8.5,57.5 Z"/></g>
<g><path style="opacity:1" fill="#6b807d" d="M 75.5,60.5 C 76.9778,60.238 78.3112,60.5713 79.5,61.5C 78.6034,61.6691 77.6034,62.0024 76.5,62.5C 78.5589,63.9512 79.5589,65.9512 79.5,68.5C 77.712,68.7852 76.0453,68.4519 74.5,67.5C 75.6869,67.4464 77.0202,67.1131 78.5,66.5C 76.9466,65.561 75.6133,64.3943 74.5,63C 74.7432,62.0979 75.0766,61.2646 75.5,60.5 Z"/></g>
<g><path style="opacity:1" fill="#667b7a" d="M 68.5,60.5 C 69.9778,60.238 71.3112,60.5713 72.5,61.5C 71.6034,61.6691 70.6034,62.0024 69.5,62.5C 75.1237,66.9153 74.457,68.5819 67.5,67.5C 68.6869,67.4464 70.0202,67.1131 71.5,66.5C 69.9466,65.561 68.6133,64.3943 67.5,63C 67.7432,62.0979 68.0766,61.2646 68.5,60.5 Z"/></g>
<g><path style="opacity:1" fill="#4f696f" d="M 98.5,60.5 C 102.5,59.8333 104.167,61.5 103.5,65.5C 97.49,65.2245 97.1567,66.0579 102.5,68C 96.4034,68.1475 95.0701,65.6475 98.5,60.5 Z"/></g>
<g><path style="opacity:1" fill="#627372" d="M 31.5,60.5 C 35.5,59.8333 37.1667,61.5 36.5,65.5C 30.49,65.2245 30.1567,66.0579 35.5,68C 29.4034,68.1475 28.0701,65.6475 31.5,60.5 Z"/></g>
<g><path style="opacity:1" fill="#627372" d="M 61.5,60.5 C 65.5,59.8333 67.1667,61.5 66.5,65.5C 60.49,65.2245 60.1567,66.0579 65.5,68C 59.4034,68.1475 58.0701,65.6475 61.5,60.5 Z"/></g>
<g><path style="opacity:1" fill="#6a7874" d="M 25.5,58.5 C 26.3094,59.4687 27.3094,60.3021 28.5,61C 26.9414,63.6417 27.2747,65.975 29.5,68C 28.2068,68.49 26.8734,68.6567 25.5,68.5C 25.1634,64.9889 25.1634,61.6556 25.5,58.5 Z"/></g>
<g><path style="opacity:1" fill="#5b7276" d="M 82.5,60.5 C 84.1439,60.2865 85.6439,60.6198 87,61.5C 87.4966,63.8098 87.6633,66.1432 87.5,68.5C 85.5,68.5 83.5,68.5 81.5,68.5C 81.3297,65.5095 82.663,63.5095 85.5,62.5C 84.2839,61.9041 82.9506,61.7374 81.5,62C 82.056,61.6174 82.3893,61.1174 82.5,60.5 Z"/></g>
<g><path style="opacity:1" fill="#637677" d="M 90.5,60.5 C 92.5273,60.3379 94.5273,60.5045 96.5,61C 95.8095,62.0674 95.3095,63.2341 95,64.5C 94.6322,63.09 93.7989,62.09 92.5,61.5C 91.5344,63.396 91.2011,65.396 91.5,67.5C 96.2442,67.0384 97.2442,68.5384 94.5,72C 92.8876,72.7203 91.3876,72.5536 90,71.5C 89.2446,67.7446 89.4113,64.0779 90.5,60.5 Z"/></g>
<g><path style="opacity:1" fill="#acb4bc" d="M 10.5,75.5 C 113.834,75.3333 217.167,75.5 320.5,76C 321.667,76.5 322.5,77.3333 323,78.5C 323.667,88.5 323.667,98.5 323,108.5C 322.5,109.667 321.667,110.5 320.5,111C 217.167,111.667 113.833,111.667 10.5,111C 9.33333,110.5 8.5,109.667 8,108.5C 7.33333,98.5 7.33333,88.5 8,78.5C 8.69794,77.3094 9.53128,76.3094 10.5,75.5 Z"/></g>
<g><path style="opacity:1" fill="#78857e" d="M 8.5,119.5 C 10.604,119.201 12.604,119.534 14.5,120.5C 12.9547,121.452 11.288,121.785 9.5,121.5C 9.5,122.5 9.5,123.5 9.5,124.5C 14.8333,124.833 14.8333,125.167 9.5,125.5C 9.5,126.833 9.5,128.167 9.5,129.5C 11.1992,129.34 12.8659,129.506 14.5,130C 12.5273,130.495 10.5273,130.662 8.5,130.5C 8.5,126.833 8.5,123.167 8.5,119.5 Z"/></g>
<g><path style="opacity:1" fill="#657d7a" d="M 57.5,123.5 C 58.5417,122.209 59.7083,122.209 61,123.5C 61.8141,125.902 61.6474,128.235 60.5,130.5C 60.0615,127.705 59.0615,125.372 57.5,123.5 Z"/></g>
<g><path style="opacity:1" fill="#6c807a" d="M 68.5,119.5 C 70.4136,122.684 71.0803,126.351 70.5,130.5C 64.3261,131.827 62.1594,129.494 64,123.5C 65.3561,122.62 66.8561,122.286 68.5,122.5C 68.5,121.5 68.5,120.5 68.5,119.5 Z"/></g>
<g><path style="opacity:1" fill="#193243" d="M 65.5,123.5 C 66.5,123.5 67.5,123.5 68.5,123.5C 68.5,125.5 68.5,127.5 68.5,129.5C 64.5564,129.116 63.5564,127.116 65.5,123.5 Z"/></g>
<g><path style="opacity:1" fill="#6c807a" d="M 80.5,119.5 C 82.4136,122.684 83.0803,126.351 82.5,130.5C 76.3261,131.827 74.1594,129.494 76,123.5C 77.3561,122.62 78.8561,122.286 80.5,122.5C 80.5,121.5 80.5,120.5 80.5,119.5 Z"/></g>
<g><path style="opacity:1" fill="#193243" d="M 77.5,123.5 C 78.5,123.5 79.5,123.5 80.5,123.5C 80.5,125.5 80.5,127.5 80.5,129.5C 76.5564,129.116 75.5564,127.116 77.5,123.5 Z"/></g>
<g><path style="opacity:1" fill="#6d7466" d="M 92.5,120.5 C 93.9311,121.082 95.2644,121.915 96.5,123C 93.8333,125.333 93.8333,127.667 96.5,130C 95.2161,130.684 94.0495,130.517 93,129.5C 92.1222,126.356 91.9555,123.356 92.5,120.5 Z"/></g>
<g><path style="opacity:1" fill="#607474" d="M 48.5,122.5 C 55.1078,124.398 55.1078,126.398 48.5,128.5C 49.7287,129.281 51.062,129.781 52.5,130C 48.7983,131.393 46.7983,130.226 46.5,126.5C 46.8029,124.886 47.4695,123.552 48.5,122.5 Z"/></g>
<g><path style="opacity:1" fill="#627372" d="M 31.5,122.5 C 35.5,121.833 37.1667,123.5 36.5,127.5C 30.49,127.225 30.1567,128.058 35.5,130C 29.4034,130.147 28.0701,127.647 31.5,122.5 Z"/></g>
<g><path style="opacity:1" fill="#6a7874" d="M 25.5,120.5 C 26.3094,121.469 27.3094,122.302 28.5,123C 26.9414,125.642 27.2747,127.975 29.5,130C 28.2068,130.49 26.8734,130.657 25.5,130.5C 25.1634,126.989 25.1634,123.656 25.5,120.5 Z"/></g>
<g><path style="opacity:1" fill="#5b7276" d="M 85.5,122.5 C 87.1439,122.286 88.6439,122.62 90,123.5C 90.4966,125.81 90.6633,128.143 90.5,130.5C 88.5,130.5 86.5,130.5 84.5,130.5C 84.3297,127.509 85.663,125.509 88.5,124.5C 87.2839,123.904 85.9506,123.737 84.5,124C 85.056,123.617 85.3893,123.117 85.5,122.5 Z"/></g>
<g><path style="opacity:1" fill="#667a7a" d="M 98.5,122.5 C 102.5,121.833 104.167,123.5 103.5,127.5C 97.062,127.587 97.062,128.42 103.5,130C 97.5933,130.746 95.9267,128.246 98.5,122.5 Z"/></g>
<g><path style="opacity:1" fill="#aab2ba" d="M 10.5,137.5 C 113.834,137.333 217.167,137.5 320.5,138C 321.667,138.5 322.5,139.333 323,140.5C 323.667,150.5 323.667,160.5 323,170.5C 322.5,171.667 321.667,172.5 320.5,173C 217.167,173.667 113.833,173.667 10.5,173C 9.33333,172.5 8.5,171.667 8,170.5C 7.33333,160.5 7.33333,150.5 8,140.5C 8.69794,139.309 9.53128,138.309 10.5,137.5 Z"/></g>
<g><path style="opacity:1" fill="#040505" d="M 297.5,148.5 C 300.576,149.341 303.576,149.674 306.5,149.5C 307.491,153.445 307.824,157.445 307.5,161.5C 303.5,161.5 299.5,161.5 295.5,161.5C 294.999,156.847 295.666,152.514 297.5,148.5 Z"/></g>
<g><path style="opacity:1" fill="#4b4149" d="M 57.5,150.5 C 58.4816,153.962 58.815,157.629 58.5,161.5C 52.8333,161.336 52.5,161.003 57.5,160.5C 57.5,158.5 57.5,156.5 57.5,154.5C 53.5,154.167 53.5,153.833 57.5,153.5C 57.5,152.5 57.5,151.5 57.5,150.5 Z"/></g>
<g><path style="opacity:1" fill="#acb5bc" d="M 296.5,152.5 C 299.833,152.5 303.167,152.5 306.5,152.5C 306.5,155.167 306.5,157.833 306.5,160.5C 303.167,160.5 299.833,160.5 296.5,160.5C 296.5,157.833 296.5,155.167 296.5,152.5 Z"/></g>
<g><path style="opacity:1" fill="#123d72" d="M 34.5,153.5 C 35.2891,153.783 35.9558,154.283 36.5,155C 35.7362,157.069 35.2362,159.236 35,161.5C 34.5026,158.854 34.3359,156.187 34.5,153.5 Z"/></g>
<g><path style="opacity:1" fill="#b68a04" d="M 9.5,182.5 C 46.5015,182.333 83.5015,182.5 120.5,183C 121.333,183.833 122.167,184.667 123,185.5C 123.667,196.167 123.667,206.833 123,217.5C 122.167,218.333 121.333,219.167 120.5,220C 83.5,220.667 46.5,220.667 9.5,220C 8.66667,219.167 7.83333,218.333 7,217.5C 6.33333,206.833 6.33333,196.167 7,185.5C 8.04499,184.627 8.87833,183.627 9.5,182.5 Z"/></g>
<g><path style="opacity:1" fill="#e6e8d5" d="M 42.5,195.5 C 44.4228,199.029 45.0894,203.029 44.5,207.5C 38.3261,208.827 36.1594,206.494 38,200.5C 39.3561,199.62 40.8561,199.286 42.5,199.5C 42.5,198.167 42.5,196.833 42.5,195.5 Z"/></g>
<g><path style="opacity:1" fill="#e2dbd3" d="M 94.5,195.5 C 95.4834,199.298 95.8168,203.298 95.5,207.5C 89.8868,208.921 87.7201,206.921 89,201.5C 90.1096,199.963 91.6096,199.297 93.5,199.5C 93.4326,198.041 93.7659,196.708 94.5,195.5 Z"/></g>
<g><path style="opacity:1" fill="#e9dec1" d="M 99.5,199.5 C 103.5,198.833 105.167,200.5 104.5,204.5C 98.49,204.225 98.1567,205.058 103.5,207C 97.2016,207.495 95.8682,204.995 99.5,199.5 Z"/></g>
<g><path style="opacity:1" fill="#dfd2c4" d="M 54.5,201.5 C 53.5,201.5 52.5,201.5 51.5,201.5C 51.7989,203.604 51.4656,205.604 50.5,207.5C 49.1667,204.833 49.1667,202.167 50.5,199.5C 51.5,200.833 52.5,200.833 53.5,199.5C 54.2975,199.957 54.6309,200.624 54.5,201.5 Z"/></g>
<g><path style="opacity:1" fill="#e4ecfd" d="M 65.5,200.5 C 64.7904,202.746 64.2904,205.08 64,207.5C 63.3333,204.833 63.3333,202.167 64,199.5C 64.3826,200.056 64.8826,200.389 65.5,200.5 Z"/></g>
<g><path style="opacity:1" fill="#e6efd5" d="M 76.5,199.5 C 77.7479,200.334 78.4146,201.667 78.5,203.5C 78.1667,204.833 77.8333,206.167 77.5,207.5C 76.52,204.914 76.1866,202.247 76.5,199.5 Z"/></g>
<g><path style="opacity:1" fill="#dfd2c4" d="M 105.5,199.5 C 106.94,200.363 108.274,200.363 109.5,199.5C 109.833,199.833 110.167,200.167 110.5,200.5C 109.675,201.386 108.675,201.719 107.5,201.5C 107.799,203.604 107.466,205.604 106.5,207.5C 105.52,204.914 105.187,202.247 105.5,199.5 Z"/></g>
<g><path style="opacity:1" fill="#e5e1dd" d="M 33.5,195.5 C 35.4228,199.029 36.0894,203.029 35.5,207.5C 29.8868,208.921 27.7201,206.921 29,201.5C 30.1096,199.963 31.6096,199.297 33.5,199.5C 33.5,198.167 33.5,196.833 33.5,195.5 Z"/></g>
<g><path style="opacity:1" fill="#c6961d" d="M 31.5,200.5 C 32.6935,200.97 33.3601,201.97 33.5,203.5C 32.7092,207.285 31.7092,207.285 30.5,203.5C 30.685,202.416 31.0183,201.416 31.5,200.5 Z"/></g>
<g><path style="opacity:1" fill="#c09113" d="M 40.5,200.5 C 43.1523,202.462 43.1523,204.462 40.5,206.5C 39.3058,204.484 39.3058,202.484 40.5,200.5 Z"/></g>
<g><path style="opacity:1" fill="#d8e6db" d="M 70.5,200.5 C 71.5417,199.209 72.7083,199.209 74,200.5C 74.8141,202.902 74.6474,205.235 73.5,207.5C 73.0615,204.705 72.0615,202.372 70.5,200.5 Z"/></g>
<g><path style="opacity:1" fill="#e8ead5" d="M 80.5,199.5 C 87.232,198.482 89.232,201.148 86.5,207.5C 84.8333,198.167 83.1667,198.167 81.5,207.5C 80.52,204.914 80.1866,202.247 80.5,199.5 Z"/></g>
<g><path style="opacity:1" fill="#c4980d" d="M 90.5,201.5 C 91.5,201.5 92.5,201.5 93.5,201.5C 93.7852,203.288 93.4519,204.955 92.5,206.5C 90.7826,205.332 90.1159,203.665 90.5,201.5 Z"/></g>
<g><path style="opacity:1" fill="#e4dee2" d="M 65.5,200.5 C 66.9989,199.506 68.6656,199.506 70.5,200.5C 69.9416,202.823 69.2749,205.157 68.5,207.5C 68.0615,204.705 67.0615,202.372 65.5,200.5 Z"/></g>
<g><path style="opacity:1" fill="#eae4d6" d="M 22.5,196.5 C 23.7498,196.577 24.5831,197.244 25,198.5C 26.5225,201.491 27.0225,204.491 26.5,207.5C 25.6143,206.675 25.281,205.675 25.5,204.5C 23.0194,204.323 21.1861,205.323 20,207.5C 20.2927,203.771 21.126,200.104 22.5,196.5 Z"/></g>
<g><path style="opacity:1" fill="#ede1c6" d="M 54.5,201.5 C 58.8433,198.161 61.1766,199.161 61.5,204.5C 55.49,204.225 55.1567,205.058 60.5,207C 56.1638,207.833 54.1638,206 54.5,201.5 Z"/></g>
<g><path style="opacity:1" fill="#002b36" d="M -0.5,245.5 C 110.5,245.5 221.5,245.5 332.5,245.5C 332.167,337.002 332.501,428.335 333.5,519.5C 333.5,520.833 333.5,522.167 333.5,523.5C 332.667,577.998 332.167,632.665 332,687.5C 330.833,688.667 329.667,689.833 328.5,691C 219.833,691.667 111.167,691.667 2.5,691C 1.62656,689.955 0.626561,689.122 -0.5,688.5C -0.5,540.833 -0.5,393.167 -0.5,245.5 Z"/></g>
<g><path style="opacity:1" fill="#b58901" d="M 9.5,261.5 C 113.501,261.333 217.501,261.5 321.5,262C 322.333,262.833 323.167,263.667 324,264.5C 324.667,281.167 324.667,297.833 324,314.5C 323.167,315.333 322.333,316.167 321.5,317C 217.5,317.667 113.5,317.667 9.5,317C 8.66667,316.167 7.83333,315.333 7,314.5C 6.33333,297.833 6.33333,281.167 7,264.5C 8.04499,263.627 8.87833,262.627 9.5,261.5 Z"/></g>
<g><path style="opacity:1" fill="#e7e9d6" d="M 22.5,284.5 C 25.2469,284.187 27.9135,284.52 30.5,285.5C 29.675,286.386 28.675,286.719 27.5,286.5C 26.8333,298.5 26.1667,298.5 25.5,286.5C 23.8212,286.715 22.8212,286.048 22.5,284.5 Z"/></g>
<g><path style="opacity:1" fill="#e7e9d6" d="M 91.5,284.5 C 94.2469,284.187 96.9135,284.52 99.5,285.5C 98.675,286.386 97.675,286.719 96.5,286.5C 95.8333,298.5 95.1667,298.5 94.5,286.5C 92.8212,286.715 91.8212,286.048 91.5,284.5 Z"/></g>
<g><path style="opacity:1" fill="#e1e3d2" d="M 100.5,283.5 C 102.176,284.183 102.843,285.517 102.5,287.5C 104.144,287.286 105.644,287.62 107,288.5C 107.814,290.902 107.647,293.235 106.5,295.5C 105.534,293.604 105.201,291.604 105.5,289.5C 104.5,289.5 103.5,289.5 102.5,289.5C 102.799,291.604 102.466,293.604 101.5,295.5C 100.509,291.555 100.176,287.555 100.5,283.5 Z"/></g>
<g><path style="opacity:1" fill="#dcd2cb" d="M 145.5,288.5 C 144.942,290.823 144.275,293.157 143.5,295.5C 142.078,291.35 142.245,287.35 144,283.5C 144.198,285.382 144.698,287.048 145.5,288.5 Z"/></g>
<g><path style="opacity:1" fill="#ddd0c7" d="M 120.5,284.5 C 121.496,284.414 122.329,284.748 123,285.5C 125.575,292.284 127.075,291.95 127.5,284.5C 128.833,288.167 128.833,291.833 127.5,295.5C 125.515,293.543 124.015,291.21 123,288.5C 122.814,290.9 122.314,293.234 121.5,295.5C 120.511,291.893 120.177,288.226 120.5,284.5 Z"/></g>
<g><path style="opacity:1" fill="#e7dac6" d="M 31.5,287.5 C 33.1439,287.286 34.6439,287.62 36,288.5C 36.4966,290.81 36.6633,293.143 36.5,295.5C 34.5,295.5 32.5,295.5 30.5,295.5C 29.8429,292.159 31.1763,290.159 34.5,289.5C 33.2839,288.904 31.9506,288.737 30.5,289C 31.056,288.617 31.3893,288.117 31.5,287.5 Z"/></g>
<g><path style="opacity:1" fill="#e3dadb" d="M 151.5,285.5 C 152.931,286.082 154.264,286.915 155.5,288C 152.833,290.333 152.833,292.667 155.5,295C 154.216,295.684 153.049,295.517 152,294.5C 151.122,291.356 150.955,288.356 151.5,285.5 Z"/></g>
<g><path style="opacity:1" fill="#ebe6d3" d="M 259.5,285.5 C 260.833,285.5 262.167,285.5 263.5,285.5C 262.989,289.03 263.656,292.196 265.5,295C 260.627,295.751 259.294,295.584 261.5,294.5C 261.71,291.248 261.044,288.248 259.5,285.5 Z"/></g>
<g><path style="opacity:1" fill="#dbd1cd" d="M 130.5,287.5 C 131.748,288.334 132.415,289.667 132.5,291.5C 132.167,292.833 131.833,294.167 131.5,295.5C 130.52,292.914 130.187,290.247 130.5,287.5 Z"/></g>
<g><path style="opacity:1" fill="#dfe1d2" d="M 268.5,284.5 C 272.062,284.564 273.729,286.397 273.5,290C 273.537,294.48 271.537,295.98 267.5,294.5C 265.968,290.905 266.302,287.572 268.5,284.5 Z"/></g>
<g><path style="opacity:1" fill="#c38f06" d="M 268.5,286.5 C 269.496,286.414 270.329,286.748 271,287.5C 271.851,290.053 271.518,292.386 270,294.5C 268.625,292.063 268.125,289.397 268.5,286.5 Z"/></g>
<g><path style="opacity:1" fill="#e5e1dd" d="M 282.5,283.5 C 284.423,287.029 285.089,291.029 284.5,295.5C 278.887,296.921 276.72,294.921 278,289.5C 279.11,287.963 280.61,287.297 282.5,287.5C 282.5,286.167 282.5,284.833 282.5,283.5 Z"/></g>
<g><path style="opacity:1" fill="#c6961d" d="M 280.5,288.5 C 281.693,288.97 282.36,289.97 282.5,291.5C 281.709,295.285 280.709,295.285 279.5,291.5C 279.685,290.416 280.018,289.416 280.5,288.5 Z"/></g>
<g><path style="opacity:1" fill="#e9e4d3" d="M 302.5,287.5 C 304.288,287.215 305.955,287.548 307.5,288.5C 306.397,288.998 305.397,289.331 304.5,289.5C 306.559,290.951 307.559,292.951 307.5,295.5C 305.712,295.785 304.045,295.452 302.5,294.5C 303.397,294.331 304.397,293.998 305.5,293.5C 303.022,292.278 302.022,290.278 302.5,287.5 Z"/></g>
<g><path style="opacity:1" fill="#e5e5d9" d="M 38.5,283.5 C 40.1969,285.305 41.0302,287.639 41,290.5C 41.8333,289.5 42.6667,288.5 43.5,287.5C 44.5937,288.868 44.2603,290.035 42.5,291C 46.6021,295.939 46.2688,296.439 41.5,292.5C 40.8333,293.5 40.1667,294.5 39.5,295.5C 38.5091,291.555 38.1758,287.555 38.5,283.5 Z"/></g>
<g><path style="opacity:1" fill="#e3e6de" d="M 59.5,284.5 C 65.5464,284.573 67.7131,287.573 66,293.5C 58.9622,296.813 56.2955,294.479 58,286.5C 58.7172,285.956 59.2172,285.289 59.5,284.5 Z"/></g>
<g><path style="opacity:1" fill="#c39721" d="M 59.5,286.5 C 64.0685,286.083 65.5685,288.083 64,292.5C 62.3333,295.167 60.6667,295.167 59,292.5C 58.3224,290.402 58.4891,288.402 59.5,286.5 Z"/></g>
<g><path style="opacity:1" fill="#e4e0cc" d="M 67.5,287.5 C 68.9312,288.903 70.0978,290.569 71,292.5C 71.4017,291.128 71.9017,289.795 72.5,288.5C 73.1667,287.167 73.8333,287.167 74.5,288.5C 73.4229,290.729 72.7563,293.063 72.5,295.5C 71.325,295.719 70.325,295.386 69.5,294.5C 68.4229,292.271 67.7563,289.937 67.5,287.5 Z"/></g>
<g><path style="opacity:1" fill="#e6e3e1" d="M 81.5,289.5 C 81.1407,291.831 80.474,291.665 79.5,289C 78.8333,288.333 78.1667,288.333 77.5,289C 76.1991,290.616 76.1991,292.116 77.5,293.5C 78.6085,294.29 79.9419,294.79 81.5,295C 75.5666,296.075 73.7333,293.908 76,288.5C 78.2345,287.02 80.0679,287.353 81.5,289.5 Z"/></g>
<g><path style="opacity:1" fill="#e8eed7" d="M 83.5,287.5 C 85.1992,287.34 86.8659,287.506 88.5,288C 87.5838,288.374 86.7504,288.874 86,289.5C 85.8078,291.577 85.3078,293.577 84.5,295.5C 83.52,292.914 83.1866,290.247 83.5,287.5 Z"/></g>
<g><path style="opacity:1" fill="#e6e3e1" d="M 115.5,289.5 C 115.141,291.831 114.474,291.665 113.5,289C 112.833,288.333 112.167,288.333 111.5,289C 110.199,290.616 110.199,292.116 111.5,293.5C 112.609,294.29 113.942,294.79 115.5,295C 109.567,296.075 107.733,293.908 110,288.5C 112.235,287.02 114.068,287.353 115.5,289.5 Z"/></g>
<g><path style="opacity:1" fill="#e3dde1" d="M 145.5,288.5 C 146.542,287.209 147.708,287.209 149,288.5C 149.814,290.902 149.647,293.235 148.5,295.5C 148.062,292.705 147.062,290.372 145.5,288.5 Z"/></g>
<g><path style="opacity:1" fill="#ede1c6" d="M 47.5,287.5 C 51.5,286.833 53.1667,288.5 52.5,292.5C 46.49,292.225 46.1567,293.058 51.5,295C 45.4034,295.147 44.0701,292.647 47.5,287.5 Z"/></g>
<g><path style="opacity:1" fill="#e8cf8e" d="M 81.5,289.5 C 82.404,290.209 82.7373,291.209 82.5,292.5C 80.5853,292.216 78.9187,292.549 77.5,293.5C 76.1991,292.116 76.1991,290.616 77.5,289C 78.1667,288.333 78.8333,288.333 79.5,289C 80.474,291.665 81.1407,291.831 81.5,289.5 Z"/></g>
<g><path style="opacity:1" fill="#e8cf8e" d="M 115.5,289.5 C 116.404,290.209 116.737,291.209 116.5,292.5C 114.585,292.216 112.919,292.549 111.5,293.5C 110.199,292.116 110.199,290.616 111.5,289C 112.167,288.333 112.833,288.333 113.5,289C 114.474,291.665 115.141,291.831 115.5,289.5 Z"/></g>
<g><path style="opacity:1" fill="#eae2cb" d="M 293.5,288.5 C 293.5,290.833 293.5,293.167 293.5,295.5C 291.167,295.5 288.833,295.5 286.5,295.5C 286.215,291.962 287.882,290.129 291.5,290C 290.159,288.705 288.826,288.205 287.5,288.5C 289.516,287.306 291.516,287.306 293.5,288.5 Z"/></g>
<g><path style="opacity:1" fill="#e7e0cc" d="M 135.5,287.5 C 137.527,287.338 139.527,287.505 141.5,288C 141.352,291.343 139.685,293.343 136.5,294C 138.134,294.494 139.801,294.66 141.5,294.5C 141.307,299.014 139.14,300.347 135,298.5C 135.024,294.98 135.19,291.314 135.5,287.5 Z"/></g>
<g><path style="opacity:1" fill="#c89c1e" d="M 136.5,288.5 C 140.31,289.754 140.31,290.754 136.5,291.5C 136.5,290.5 136.5,289.5 136.5,288.5 Z"/></g>
<g><path style="opacity:1" fill="#e4e2d4" d="M 293.5,288.5 C 294.189,287.226 295.023,287.226 296,288.5C 296.862,290.087 297.529,291.754 298,293.5C 298.346,291.782 298.846,290.115 299.5,288.5C 300.167,287.167 300.833,287.167 301.5,288.5C 300.246,292.683 298.246,296.349 295.5,299.5C 295.167,299.167 294.833,298.833 294.5,298.5C 296.788,294.987 296.455,291.653 293.5,288.5 Z"/></g>
<g><path style="opacity:1" fill="#b58901" d="M 9.5,333.5 C 113.501,333.333 217.501,333.5 321.5,334C 322.333,334.833 323.167,335.667 324,336.5C 324.667,353.167 324.667,369.833 324,386.5C 323.167,387.333 322.333,388.167 321.5,389C 217.5,389.667 113.5,389.667 9.5,389C 8.66667,388.167 7.83333,387.333 7,386.5C 6.33333,369.833 6.33333,353.167 7,336.5C 8.04499,335.627 8.87833,334.627 9.5,333.5 Z"/></g>
<g><path style="opacity:1" fill="#e3eaf7" d="M 50.5,360.5 C 49.7904,362.746 49.2904,365.08 49,367.5C 48.3333,363.5 48.3333,359.5 49,355.5C 49.1981,357.382 49.6981,359.048 50.5,360.5 Z"/></g>
<g><path style="opacity:1" fill="#e3dadb" d="M 41.5,360.5 C 42.6461,356.759 44.3128,356.592 46.5,360C 43.8333,362.333 43.8333,364.667 46.5,367C 45.2161,367.684 44.0495,367.517 43,366.5C 42.8091,364.292 42.3091,362.292 41.5,360.5 Z"/></g>
<g><path style="opacity:1" fill="#e9dec1" d="M 66.5,360.5 C 66.5,361.833 66.5,363.167 66.5,364.5C 60.49,364.225 60.1567,365.058 65.5,367C 62.1379,368.293 60.1379,367.293 59.5,364C 60.2654,359.724 62.5987,358.557 66.5,360.5 Z"/></g>
<g><path style="opacity:1" fill="#e7dac6" d="M 75.5,359.5 C 77.1439,359.286 78.6439,359.62 80,360.5C 80.4966,362.81 80.6633,365.143 80.5,367.5C 78.5,367.5 76.5,367.5 74.5,367.5C 73.8429,364.159 75.1763,362.159 78.5,361.5C 77.2839,360.904 75.9506,360.737 74.5,361C 75.056,360.617 75.3893,360.117 75.5,359.5 Z"/></g>
<g><path style="opacity:1" fill="#ddd3cd" d="M 85.5,360.5 C 84.9416,362.823 84.2749,365.157 83.5,367.5C 82.1667,364.833 82.1667,362.167 83.5,359.5C 84.1835,359.863 84.8501,360.196 85.5,360.5 Z"/></g>
<g><path style="opacity:1" fill="#eaebdd" d="M 85.5,360.5 C 87.9446,360.435 90.6113,360.269 93.5,360C 94.7766,362.466 94.7766,364.966 93.5,367.5C 91.8333,358.167 90.1667,358.167 88.5,367.5C 88.0615,364.705 87.0615,362.372 85.5,360.5 Z"/></g>
<g><path style="opacity:1" fill="#e9e6d7" d="M 268.5,356.5 C 270.567,356.532 271.9,357.532 272.5,359.5C 272.686,361.926 272.686,364.426 272.5,367C 270.421,367.808 268.421,367.641 266.5,366.5C 267.391,365.41 268.391,365.41 269.5,366.5C 272.11,364.813 271.777,363.479 268.5,362.5C 269.737,361.719 270.737,360.719 271.5,359.5C 269.784,359.003 268.117,358.669 266.5,358.5C 267.243,357.818 267.909,357.151 268.5,356.5 Z"/></g>
<g><path style="opacity:1" fill="#e0d8d5" d="M 50.5,360.5 C 51.5417,359.209 52.7083,359.209 54,360.5C 54.8141,362.902 54.6474,365.235 53.5,367.5C 53.0615,364.705 52.0615,362.372 50.5,360.5 Z"/></g>
<g><path style="opacity:1" fill="#e2e1d8" d="M 66.5,360.5 C 67.7927,359.355 68.9593,359.689 70,361.5C 74.0116,358.771 74.5116,359.437 71.5,363.5C 72.0402,364.748 72.7069,365.915 73.5,367C 71.5911,367.448 70.4244,366.615 70,364.5C 69.5756,366.615 68.4089,367.448 66.5,367C 69.1339,364.707 69.1339,362.54 66.5,360.5 Z"/></g>
<g><path style="opacity:1" fill="#e5e1dd" d="M 282.5,355.5 C 284.423,359.029 285.089,363.029 284.5,367.5C 278.887,368.921 276.72,366.921 278,361.5C 279.11,359.963 280.61,359.297 282.5,359.5C 282.5,358.167 282.5,356.833 282.5,355.5 Z"/></g>
<g><path style="opacity:1" fill="#c6961d" d="M 280.5,360.5 C 281.693,360.97 282.36,361.97 282.5,363.5C 281.709,367.285 280.709,367.285 279.5,363.5C 279.685,362.416 280.018,361.416 280.5,360.5 Z"/></g>
<g><path style="opacity:1" fill="#e9e4d3" d="M 302.5,359.5 C 304.288,359.215 305.955,359.548 307.5,360.5C 306.397,360.998 305.397,361.331 304.5,361.5C 306.559,362.951 307.559,364.951 307.5,367.5C 305.712,367.785 304.045,367.452 302.5,366.5C 303.397,366.331 304.397,365.998 305.5,365.5C 303.022,364.278 302.022,362.278 302.5,359.5 Z"/></g>
<g><path style="opacity:1" fill="#e4e0d1" d="M 23.5,356.5 C 24.3764,356.369 25.0431,356.702 25.5,357.5C 26.2357,359.541 27.0691,361.541 28,363.5C 28.516,360.749 29.6827,358.416 31.5,356.5C 32.8333,360.167 32.8333,363.833 31.5,367.5C 30.7022,365.922 30.2022,364.256 30,362.5C 29.1904,367.046 27.8571,367.38 26,363.5C 25.7811,364.938 25.2811,366.271 24.5,367.5C 23.5108,363.893 23.1774,360.226 23.5,356.5 Z"/></g>
<g><path style="opacity:1" fill="#eae2cb" d="M 41.5,360.5 C 41.5,362.833 41.5,365.167 41.5,367.5C 39.1667,367.5 36.8333,367.5 34.5,367.5C 34.2153,363.962 35.882,362.129 39.5,362C 38.1588,360.705 36.8255,360.205 35.5,360.5C 37.5156,359.306 39.5156,359.306 41.5,360.5 Z"/></g>
<g><path style="opacity:1" fill="#eae2cb" d="M 293.5,360.5 C 293.5,362.833 293.5,365.167 293.5,367.5C 291.167,367.5 288.833,367.5 286.5,367.5C 286.215,363.962 287.882,362.129 291.5,362C 290.159,360.705 288.826,360.205 287.5,360.5C 289.516,359.306 291.516,359.306 293.5,360.5 Z"/></g>
<g><path style="opacity:1" fill="#e4e2d4" d="M 293.5,360.5 C 294.189,359.226 295.023,359.226 296,360.5C 296.862,362.087 297.529,363.754 298,365.5C 298.346,363.782 298.846,362.115 299.5,360.5C 300.167,359.167 300.833,359.167 301.5,360.5C 300.246,364.683 298.246,368.349 295.5,371.5C 295.167,371.167 294.833,370.833 294.5,370.5C 296.788,366.987 296.455,363.653 293.5,360.5 Z"/></g>
<g><path style="opacity:1" fill="#b58900" d="M 9.5,405.5 C 113.501,405.333 217.501,405.5 321.5,406C 322.333,406.833 323.167,407.667 324,408.5C 324.667,425.167 324.667,441.833 324,458.5C 323.167,459.333 322.333,460.167 321.5,461C 217.5,461.667 113.5,461.667 9.5,461C 8.66667,460.167 7.83333,459.333 7,458.5C 6.33333,441.833 6.33333,425.167 7,408.5C 8.04499,407.627 8.87833,406.627 9.5,405.5 Z"/></g>
<g><path style="opacity:1" fill="#eae3d0" d="M 268.5,428.5 C 270.39,428.297 271.89,428.963 273,430.5C 272.714,433.374 272.547,436.207 272.5,439C 270.559,439.743 268.726,439.576 267,438.5C 267.402,436.126 267.236,433.793 266.5,431.5C 267.193,430.482 267.859,429.482 268.5,428.5 Z"/></g>
<g><path style="opacity:1" fill="#c4981b" d="M 268.5,430.5 C 269.5,430.5 270.5,430.5 271.5,430.5C 270.754,434.31 269.754,434.31 268.5,430.5 Z"/></g>
<g><path style="opacity:1" fill="#ebe4d5" d="M 72.5,431.5 C 74.1439,431.286 75.6439,431.62 77,432.5C 77.4966,434.81 77.6633,437.143 77.5,439.5C 75.5,439.5 73.5,439.5 71.5,439.5C 70.8429,436.159 72.1763,434.159 75.5,433.5C 74.2839,432.904 72.9506,432.737 71.5,433C 72.056,432.617 72.3893,432.117 72.5,431.5 Z"/></g>
<g><path style="opacity:1" fill="#e6e5d1" d="M 23.5,428.5 C 25.7757,430.331 27.609,432.664 29,435.5C 29.1858,433.1 29.6858,430.766 30.5,428.5C 31.8333,432.167 31.8333,435.833 30.5,439.5C 28.2822,438.076 26.7822,436.076 26,433.5C 25.8078,435.577 25.3078,437.577 24.5,439.5C 23.5108,435.893 23.1774,432.226 23.5,428.5 Z"/></g>
<g><path style="opacity:1" fill="#e5e1dd" d="M 282.5,427.5 C 284.423,431.029 285.089,435.029 284.5,439.5C 278.887,440.921 276.72,438.921 278,433.5C 279.11,431.963 280.61,431.297 282.5,431.5C 282.5,430.167 282.5,428.833 282.5,427.5 Z"/></g>
<g><path style="opacity:1" fill="#c6961d" d="M 280.5,432.5 C 281.693,432.97 282.36,433.97 282.5,435.5C 281.709,439.285 280.709,439.285 279.5,435.5C 279.685,434.416 280.018,433.416 280.5,432.5 Z"/></g>
<g><path style="opacity:1" fill="#e9e4d3" d="M 302.5,431.5 C 304.288,431.215 305.955,431.548 307.5,432.5C 306.397,432.998 305.397,433.331 304.5,433.5C 306.559,434.951 307.559,436.951 307.5,439.5C 305.712,439.785 304.045,439.452 302.5,438.5C 303.397,438.331 304.397,437.998 305.5,437.5C 303.022,436.278 302.022,434.278 302.5,431.5 Z"/></g>
<g><path style="opacity:1" fill="#e6e3e1" d="M 39.5,433.5 C 39.1407,435.831 38.474,435.665 37.5,433C 36.8333,432.333 36.1667,432.333 35.5,433C 34.1991,434.616 34.1991,436.116 35.5,437.5C 36.6085,438.29 37.9419,438.79 39.5,439C 33.5666,440.075 31.7333,437.908 34,432.5C 36.2345,431.02 38.0679,431.353 39.5,433.5 Z"/></g>
<g><path style="opacity:1" fill="#deddd2" d="M 55.5,431.5 C 57.4803,432.848 58.647,434.848 59,437.5C 59.5,436 60,434.5 60.5,433C 60.8499,431.743 61.5165,431.409 62.5,432C 61.2591,435.124 60.0924,438.291 59,441.5C 58.0347,443.26 56.868,443.594 55.5,442.5C 56.4891,441.532 57.1557,440.365 57.5,439C 56.6781,436.528 56.0114,434.028 55.5,431.5 Z"/></g>
<g><path style="opacity:1" fill="#e8eed7" d="M 79.5,431.5 C 81.1992,431.34 82.8659,431.506 84.5,432C 83.5838,432.374 82.7504,432.874 82,433.5C 81.8078,435.577 81.3078,437.577 80.5,439.5C 79.52,436.914 79.1866,434.247 79.5,431.5 Z"/></g>
<g><path style="opacity:1" fill="#e8cf8e" d="M 39.5,433.5 C 39.8333,433.5 40.1667,433.5 40.5,433.5C 40.5,434.5 40.5,435.5 40.5,436.5C 38.5853,436.216 36.9187,436.549 35.5,437.5C 34.1991,436.116 34.1991,434.616 35.5,433C 36.1667,432.333 36.8333,432.333 37.5,433C 38.474,435.665 39.1407,435.831 39.5,433.5 Z"/></g>
<g><path style="opacity:1" fill="#e3ddd1" d="M 40.5,433.5 C 40.3691,432.624 40.7025,431.957 41.5,431.5C 42.8064,432.912 43.6397,434.579 44,436.5C 44.9243,430.519 46.591,430.186 49,435.5C 49.2189,434.062 49.7189,432.729 50.5,431.5C 50.7824,433.987 50.7824,436.653 50.5,439.5C 47.9505,439.439 46.4505,438.106 46,435.5C 45.51,436.793 45.3433,438.127 45.5,439.5C 44.325,439.719 43.325,439.386 42.5,438.5C 41.9724,436.664 41.3058,434.997 40.5,433.5 Z"/></g>
<g><path style="opacity:1" fill="#e9e2cf" d="M 64.5,431.5 C 68.3491,431.019 70.3491,432.686 70.5,436.5C 68.712,436.215 67.0453,436.548 65.5,437.5C 66.9798,438.113 68.3131,438.446 69.5,438.5C 67.9255,439.631 66.2588,439.798 64.5,439C 63.2215,436.502 63.2215,434.002 64.5,431.5 Z"/></g>
<g><path style="opacity:1" fill="#bd8e12" d="M 268.5,435.5 C 269.5,435.5 270.5,435.5 271.5,435.5C 271.5,436.5 271.5,437.5 271.5,438.5C 270.5,438.5 269.5,438.5 268.5,438.5C 268.5,437.5 268.5,436.5 268.5,435.5 Z"/></g>
<g><path style="opacity:1" fill="#eae2cb" d="M 293.5,432.5 C 293.5,434.833 293.5,437.167 293.5,439.5C 291.167,439.5 288.833,439.5 286.5,439.5C 286.215,435.962 287.882,434.129 291.5,434C 290.159,432.705 288.826,432.205 287.5,432.5C 289.516,431.306 291.516,431.306 293.5,432.5 Z"/></g>
<g><path style="opacity:1" fill="#e4e2d4" d="M 293.5,432.5 C 294.189,431.226 295.023,431.226 296,432.5C 296.862,434.087 297.529,435.754 298,437.5C 298.346,435.782 298.846,434.115 299.5,432.5C 300.167,431.167 300.833,431.167 301.5,432.5C 300.246,436.683 298.246,440.349 295.5,443.5C 295.167,443.167 294.833,442.833 294.5,442.5C 296.788,438.987 296.455,435.653 293.5,432.5 Z"/></g>
<g><path style="opacity:1" fill="#b58901" d="M 9.5,477.5 C 113.501,477.333 217.501,477.5 321.5,478C 322.333,478.833 323.167,479.667 324,480.5C 324.667,497.167 324.667,513.833 324,530.5C 323.167,531.333 322.333,532.167 321.5,533C 217.5,533.667 113.5,533.667 9.5,533C 8.66667,532.167 7.83333,531.333 7,530.5C 6.33333,513.833 6.33333,497.167 7,480.5C 8.04499,479.627 8.87833,478.627 9.5,477.5 Z"/></g>
<g><path style="opacity:1" fill="#e3eaf7" d="M 77.5,504.5 C 76.7904,506.746 76.2904,509.08 76,511.5C 75.3333,507.5 75.3333,503.5 76,499.5C 76.1981,501.382 76.6981,503.048 77.5,504.5 Z"/></g>
<g><path style="opacity:1" fill="#eae3d0" d="M 268.5,500.5 C 270.39,500.297 271.89,500.963 273,502.5C 272.714,505.374 272.547,508.207 272.5,511C 270.559,511.743 268.726,511.576 267,510.5C 267.402,508.126 267.236,505.793 266.5,503.5C 267.193,502.482 267.859,501.482 268.5,500.5 Z"/></g>
<g><path style="opacity:1" fill="#c4981b" d="M 268.5,502.5 C 269.5,502.5 270.5,502.5 271.5,502.5C 270.754,506.31 269.754,506.31 268.5,502.5 Z"/></g>
<g><path style="opacity:1" fill="#ebe4d5" d="M 33.5,503.5 C 35.1439,503.286 36.6439,503.62 38,504.5C 38.4966,506.81 38.6633,509.143 38.5,511.5C 36.5,511.5 34.5,511.5 32.5,511.5C 31.8429,508.159 33.1763,506.159 36.5,505.5C 35.2839,504.904 33.9506,504.737 32.5,505C 33.056,504.617 33.3893,504.117 33.5,503.5 Z"/></g>
<g><path style="opacity:1" fill="#ebe4d5" d="M 61.5,503.5 C 63.1439,503.286 64.6439,503.62 66,504.5C 66.4966,506.81 66.6633,509.143 66.5,511.5C 64.5,511.5 62.5,511.5 60.5,511.5C 59.8429,508.159 61.1763,506.159 64.5,505.5C 63.2839,504.904 61.9506,504.737 60.5,505C 61.056,504.617 61.3893,504.117 61.5,503.5 Z"/></g>
<g><path style="opacity:1" fill="#dbd1cd" d="M 83.5,503.5 C 84.7479,504.334 85.4146,505.667 85.5,507.5C 85.1667,508.833 84.8333,510.167 84.5,511.5C 83.52,508.914 83.1866,506.247 83.5,503.5 Z"/></g>
<g><path style="opacity:1" fill="#ddd3cd" d="M 90.5,504.5 C 89.9416,506.823 89.2749,509.157 88.5,511.5C 87.1667,508.833 87.1667,506.167 88.5,503.5C 89.1835,503.863 89.8501,504.196 90.5,504.5 Z"/></g>
<g><path style="opacity:1" fill="#e9e4d3" d="M 68.5,503.5 C 70.288,503.215 71.9547,503.548 73.5,504.5C 72.3966,504.998 71.3966,505.331 70.5,505.5C 72.5589,506.951 73.5589,508.951 73.5,511.5C 71.712,511.785 70.0453,511.452 68.5,510.5C 69.3966,510.331 70.3966,509.998 71.5,509.5C 69.0217,508.278 68.0217,506.278 68.5,503.5 Z"/></g>
<g><path style="opacity:1" fill="#e0d8d5" d="M 77.5,504.5 C 78.5417,503.209 79.7083,503.209 81,504.5C 81.8141,506.902 81.6474,509.235 80.5,511.5C 80.0615,508.705 79.0615,506.372 77.5,504.5 Z"/></g>
<g><path style="opacity:1" fill="#e5e1dd" d="M 282.5,499.5 C 284.423,503.029 285.089,507.029 284.5,511.5C 278.887,512.921 276.72,510.921 278,505.5C 279.11,503.963 280.61,503.297 282.5,503.5C 282.5,502.167 282.5,500.833 282.5,499.5 Z"/></g>
<g><path style="opacity:1" fill="#c6961d" d="M 280.5,504.5 C 281.693,504.97 282.36,505.97 282.5,507.5C 281.709,511.285 280.709,511.285 279.5,507.5C 279.685,506.416 280.018,505.416 280.5,504.5 Z"/></g>
<g><path style="opacity:1" fill="#e9e4d3" d="M 302.5,503.5 C 304.288,503.215 305.955,503.548 307.5,504.5C 306.397,504.998 305.397,505.331 304.5,505.5C 306.559,506.951 307.559,508.951 307.5,511.5C 305.712,511.785 304.045,511.452 302.5,510.5C 303.397,510.331 304.397,509.998 305.5,509.5C 303.022,508.278 302.022,506.278 302.5,503.5 Z"/></g>
<g><path style="opacity:1" fill="#e6e3d7" d="M 25.5,500.5 C 27.4286,500.231 29.0953,500.731 30.5,502C 25.3574,501.471 23.5241,503.638 25,508.5C 25.6891,509.357 26.5224,510.023 27.5,510.5C 28.6086,509.41 29.6086,509.41 30.5,510.5C 25.6576,512.758 22.9909,511.258 22.5,506C 22.8627,503.808 23.8627,501.974 25.5,500.5 Z"/></g>
<g><path style="opacity:1" fill="#e8eed7" d="M 40.5,503.5 C 42.1992,503.34 43.8659,503.506 45.5,504C 44.5838,504.374 43.7504,504.874 43,505.5C 42.8078,507.577 42.3078,509.577 41.5,511.5C 40.52,508.914 40.1866,506.247 40.5,503.5 Z"/></g>
<g><path style="opacity:1" fill="#e3e2d8" d="M 48.5,503.5 C 50.0931,504.348 51.2597,505.681 52,507.5C 52.49,506.207 52.6567,504.873 52.5,503.5C 53.5,503.5 54.5,503.5 55.5,503.5C 55.5793,508.492 56.5793,508.492 58.5,503.5C 58.8333,503.833 59.1667,504.167 59.5,504.5C 58.9488,507.056 57.9488,509.389 56.5,511.5C 54.9309,510.286 54.0976,508.619 54,506.5C 53.5983,507.872 53.0983,509.205 52.5,510.5C 51.9984,511.521 51.3317,511.688 50.5,511C 49.4459,508.618 48.7792,506.118 48.5,503.5 Z"/></g>
<g><path style="opacity:1" fill="#e3dde1" d="M 90.5,504.5 C 91.5417,503.209 92.7083,503.209 94,504.5C 94.8141,506.902 94.6474,509.235 93.5,511.5C 93.0615,508.705 92.0615,506.372 90.5,504.5 Z"/></g>
<g><path style="opacity:1" fill="#bd8e12" d="M 268.5,507.5 C 269.5,507.5 270.5,507.5 271.5,507.5C 271.5,508.5 271.5,509.5 271.5,510.5C 270.5,510.5 269.5,510.5 268.5,510.5C 268.5,509.5 268.5,508.5 268.5,507.5 Z"/></g>
<g><path style="opacity:1" fill="#eae2cb" d="M 293.5,504.5 C 293.5,506.833 293.5,509.167 293.5,511.5C 291.167,511.5 288.833,511.5 286.5,511.5C 286.215,507.962 287.882,506.129 291.5,506C 290.159,504.705 288.826,504.205 287.5,504.5C 289.516,503.306 291.516,503.306 293.5,504.5 Z"/></g>
<g><path style="opacity:1" fill="#e8dabc" d="M 97.5,503.5 C 99.5273,503.338 101.527,503.505 103.5,504C 103.003,507.002 101.337,509.002 98.5,510C 100.134,510.494 101.801,510.66 103.5,510.5C 103.2,514.976 101.033,516.31 97,514.5C 96.2446,510.745 96.4113,507.078 97.5,503.5 Z"/></g>
<g><path style="opacity:1" fill="#e4e2d4" d="M 293.5,504.5 C 294.189,503.226 295.023,503.226 296,504.5C 296.862,506.087 297.529,507.754 298,509.5C 298.346,507.782 298.846,506.115 299.5,504.5C 300.167,503.167 300.833,503.167 301.5,504.5C 300.246,508.683 298.246,512.349 295.5,515.5C 295.167,515.167 294.833,514.833 294.5,514.5C 296.788,510.987 296.455,507.653 293.5,504.5 Z"/></g>
<g><path style="opacity:1" fill="#343630" d="M 333.5,523.5 C 333.5,580.167 333.5,636.833 333.5,693.5C 222.167,693.5 110.833,693.5 -0.5,693.5C -0.5,691.833 -0.5,690.167 -0.5,688.5C 0.626561,689.122 1.62656,689.955 2.5,691C 111.167,691.667 219.833,691.667 328.5,691C 329.667,689.833 330.833,688.667 332,687.5C 332.167,632.665 332.667,577.998 333.5,523.5 Z"/></g>
</svg>
